<svg width="34" height="34" viewBox="0 0 34 34" fill="none" xmlns="http://www.w3.org/2000/svg">
<g clip-path="url(#clip0_15_293)">
<path d="M27.486 0C23.8931 0 20.9701 2.92221 20.9701 6.51419V9.4083C20.9701 9.4083 16.3328 6.95712 16.2509 6.91189C15.6171 6.5622 15.4417 6.56213 14.8078 6.91189C14.7259 6.95712 5.76721 11.6904 5.76721 11.6904C5.00772 12.0899 4.90094 12.2047 4.58 12.7384C4.52767 12.8255 0.217241 19.66 0.217241 19.66C0.00640141 19.9935 -0.053497 20.3879 0.0486358 20.7704C0.156015 21.1726 0.436448 21.5187 0.817421 21.7197C1.05954 21.8479 1.32091 21.9089 1.57877 21.9089C1.99062 21.9089 2.39258 21.7524 2.69074 21.4648V25.7842C2.69074 26.0592 2.91373 26.2822 3.18879 26.2822C3.46384 26.2822 3.68684 26.0592 3.68684 25.7842V19.9709C3.68684 19.9709 6.94964 14.8008 6.98404 14.7459C7.13903 14.4983 7.20504 14.3951 7.2826 14.3264C7.37112 14.2479 7.52598 14.1627 7.85801 13.9872L15.3621 10.0261C15.4152 9.99793 15.461 9.97282 15.501 9.95091C15.5104 9.9458 15.52 9.94055 15.5295 9.93537C15.539 9.94055 15.5485 9.9458 15.5579 9.95091C15.5979 9.97289 15.6437 9.99793 15.6979 10.0267C15.6979 10.0267 23.5467 14.1714 23.6429 14.2309C23.7006 14.2667 23.7431 14.297 23.7763 14.3264C23.8538 14.3951 23.9199 14.4983 24.0749 14.746C24.1093 14.8009 27.372 19.9709 27.372 19.9709V30.6434H21.7327V23.7146H22.5711C23.0793 23.7146 23.4927 23.3012 23.4927 22.793V21.3699C23.4927 20.8618 23.0793 20.4483 22.5711 20.4483H16.9185C16.6434 20.4483 16.4204 20.6713 16.4204 20.9464C16.4204 21.2214 16.6434 21.4444 16.9185 21.4444H22.4966V22.7185H8.56391V21.4444H14.6202C14.8952 21.4444 15.1182 21.2214 15.1182 20.9464C15.1182 20.6713 14.8952 20.4483 14.6202 20.4483H8.4894C7.98126 20.4483 7.56782 20.8618 7.56782 21.3699V22.793C7.56782 23.3012 7.98126 23.7146 8.4894 23.7146H9.32778V30.6434H3.68677V28.0825C3.68677 27.8075 3.46378 27.5845 3.18872 27.5845C2.91367 27.5845 2.69067 27.8075 2.69067 28.0825V33.165C2.69067 33.6255 3.06527 34 3.52567 34H33.1367C33.6126 34 33.9999 33.6127 33.9999 33.1368V6.51419C34 2.92221 31.0778 0 27.486 0ZM9.32785 33.0039H3.68677V31.6395H9.32778L9.32785 33.0039ZM19.9384 23.7146L15.5303 27.6887L11.1221 23.7146H19.9384ZM10.3239 24.3361L14.7865 28.3593L10.3239 32.3824V24.3361ZM11.1221 33.0039L15.5303 29.0298L19.9384 33.0039H11.1221ZM20.7366 32.3824L16.2741 28.3593L20.7366 24.3361V32.3824ZM27.3719 33.0039H21.7327V31.6395H27.3719V33.0039ZM30.921 19.8008C30.8979 19.753 30.8723 19.7061 30.8435 19.6602L27.3941 14.1973H33.0039V19.8008H30.921ZM21.9662 6.51419C21.9662 3.47152 24.4424 0.996094 27.486 0.996094C30.5285 0.996094 33.0039 3.47145 33.0039 6.51419V6.59965H21.9662V6.51419ZM21.9662 7.59575H33.0039V13.2012H26.7651C26.7651 13.2012 26.5311 12.8256 26.4787 12.7386C26.1579 12.205 26.0511 12.0901 25.2922 11.6909L21.9662 9.93444V7.59575H21.9662ZM28.2911 19.5606C28.2911 19.5606 24.9526 14.271 24.919 14.2174C24.6004 13.7084 24.4865 13.5649 24.0371 13.3081C24.0025 13.2884 16.0731 9.09746 16.0363 9.07734C15.6976 8.89173 15.5152 8.85687 15.235 8.97295C15.2326 8.97394 15.23 8.9752 15.2275 8.97626C15.1866 8.99346 7.39257 13.1065 7.39257 13.1065C6.61382 13.5183 6.53188 13.591 6.13962 14.2174C6.10608 14.271 2.76751 19.5607 2.76751 19.5607C2.76684 19.5618 2.76644 19.5629 2.76578 19.5639L2.08219 20.647C1.92448 20.8972 1.55858 20.9854 1.28273 20.8392C1.14593 20.7671 1.04685 20.6484 1.01093 20.5138C0.989944 20.4351 0.981312 20.3156 1.05934 20.1921C1.05934 20.1921 5.3782 13.3441 5.43365 13.2519C5.66262 12.8711 5.66262 12.8711 6.23166 12.5717C6.23166 12.5717 15.4749 7.68161 15.5293 7.65677C15.5838 7.68161 24.827 12.5717 24.827 12.5717C24.8272 12.5718 24.8275 12.572 24.8277 12.5721C25.3961 12.8711 25.3961 12.8711 25.6251 13.252C25.6805 13.3441 25.7457 13.4525 25.8281 13.5831L30.0006 20.1912C30.0782 20.3147 30.0693 20.4348 30.0482 20.5138C30.0121 20.6488 29.9133 20.7675 29.7778 20.8391C29.4972 20.9873 29.1373 20.9005 28.9763 20.6468L28.2929 19.5639C28.2922 19.5628 28.2918 19.5616 28.2911 19.5606ZM33.0039 33.0039H28.368V27.3985H33.0039V33.0039ZM28.368 26.4024V21.4625C28.8536 21.9301 29.614 22.0518 30.2432 21.7198C30.615 21.5229 30.8904 21.1875 31.0027 20.797H33.0039V26.4025H28.368V26.4024Z" fill="#616161"/>
<path d="M18.9431 15.7962C18.9431 13.9138 17.4117 12.3823 15.5293 12.3823C13.648 12.3823 12.1174 13.9138 12.1174 15.7962C12.1174 17.6786 13.648 19.2101 15.5293 19.2101C17.4117 19.21 18.9431 17.6786 18.9431 15.7962ZM13.1135 15.7962C13.1135 14.463 14.1973 13.3784 15.5293 13.3784C16.8624 13.3784 17.947 14.463 17.947 15.7962C17.947 17.1294 16.8624 18.214 15.5293 18.214C14.1973 18.2139 13.1135 17.1293 13.1135 15.7962Z" fill="#616161"/>
</g>
<defs>
<clipPath id="clip0_15_293">
<rect width="34" height="34" fill="white"/>
</clipPath>
</defs>
</svg>
