<svg width="35" height="35" viewBox="0 0 35 35" fill="none" xmlns="http://www.w3.org/2000/svg">
<path d="M19.0061 10.2463C19.0309 10.1035 19.1115 9.97634 19.23 9.89287C19.3486 9.80939 19.4954 9.77641 19.6383 9.80117C22.3281 10.2754 24.7898 11.6138 26.6503 13.6134C26.7009 13.6657 26.7406 13.7275 26.7671 13.7953C26.7935 13.8631 26.8062 13.9354 26.8043 14.0082C26.8024 14.0809 26.786 14.1525 26.7561 14.2188C26.7262 14.2852 26.6834 14.3449 26.6301 14.3944C26.5768 14.444 26.5142 14.4824 26.4459 14.5074C26.3776 14.5325 26.305 14.5437 26.2323 14.5403C26.1596 14.5369 26.0883 14.5191 26.0226 14.4879C25.9569 14.4566 25.8981 14.4125 25.8497 14.3583C24.152 12.5335 21.9057 11.3119 19.4512 10.8785C19.3084 10.8537 19.1813 10.7731 19.0978 10.6546C19.0143 10.536 18.9813 10.3892 19.0061 10.2463ZM32.5741 28.489V29.084C32.5735 29.6705 32.3403 30.2329 31.9255 30.6477C31.5108 31.0625 30.9485 31.2959 30.3619 31.2966H4.63804C4.05148 31.2959 3.48916 31.0625 3.07445 30.6477C2.65974 30.2329 2.42651 29.6705 2.42593 29.084V28.489C2.42651 27.9024 2.65974 27.34 3.07445 26.9252C3.48916 26.5104 4.05148 26.2771 4.63804 26.2763H12.2396V22.6587H3.36547C3.22042 22.6587 3.08133 22.6011 2.97877 22.4986C2.87621 22.396 2.81859 22.2569 2.81859 22.1119C2.8233 18.3146 4.29762 14.6664 6.93258 11.9321C9.56753 9.19773 13.1586 7.58939 16.9531 7.44414V6.0157H14.2187C14.0737 6.0157 13.9346 5.95808 13.832 5.85552C13.7295 5.75297 13.6719 5.61387 13.6719 5.46883C13.6719 5.32379 13.7295 5.18469 13.832 5.08213C13.9346 4.97957 14.0737 4.92195 14.2187 4.92195H20.7812C20.9263 4.92195 21.0654 4.97957 21.1679 5.08213C21.2705 5.18469 21.3281 5.32379 21.3281 5.46883C21.3281 5.61387 21.2705 5.75297 21.1679 5.85552C21.0654 5.95808 20.9263 6.0157 20.7812 6.0157H18.0469V7.44414C21.8414 7.58939 25.4325 9.19773 28.0674 11.9321C30.7024 14.6664 32.1767 18.3146 32.1814 22.1119C32.1814 22.2569 32.1238 22.396 32.0212 22.4986C31.9187 22.6011 31.7796 22.6587 31.6345 22.6587H22.7582V26.2763H30.3598C30.9467 26.2765 31.5096 26.5096 31.9248 26.9245C32.34 27.3393 32.5735 27.902 32.5741 28.489ZM3.92328 21.565H31.0767C30.9359 18.0585 29.444 14.7425 26.9132 12.3113C24.3825 9.88017 21.0093 8.52242 17.5 8.52242C13.9907 8.52242 10.6175 9.88017 8.08676 12.3113C5.55603 14.7425 4.06406 18.0585 3.92328 21.565ZM13.3355 26.2763H21.6645V22.6587H13.3355V26.2763ZM31.4803 28.489C31.48 28.1924 31.3621 27.9081 31.1525 27.6983C30.9428 27.4886 30.6585 27.3705 30.3619 27.3701H4.63804C4.34147 27.3705 4.05719 27.4886 3.84753 27.6983C3.63788 27.9081 3.51997 28.1924 3.51968 28.489V29.084C3.51997 29.3806 3.63788 29.6649 3.84753 29.8747C4.05719 30.0844 4.34147 30.2025 4.63804 30.2029H30.3619C30.6585 30.2025 30.9428 30.0844 31.1525 29.8747C31.3621 29.6649 31.48 29.3806 31.4803 29.084V28.489ZM7.45773 6.35203L7.46648 6.36625L8.39125 7.72195C8.4415 7.79553 8.50898 7.85572 8.5878 7.89728C8.66662 7.93883 8.75441 7.9605 8.84351 7.96039C8.94308 7.96064 9.04083 7.93371 9.12621 7.88249C9.21159 7.83128 9.28138 7.75772 9.32803 7.66976C9.37468 7.5818 9.39644 7.48277 9.39095 7.38336C9.38546 7.28394 9.35293 7.18791 9.29687 7.10562L7.13836 3.9425C7.09789 3.88314 7.04612 3.83234 6.98602 3.79299C6.92592 3.75363 6.85865 3.72651 6.78807 3.71315C6.71748 3.69979 6.64495 3.70047 6.57463 3.71515C6.5043 3.72982 6.43756 3.7582 6.3782 3.79867C6.31884 3.83914 6.26804 3.8909 6.22869 3.951C6.18934 4.01111 6.16221 4.07837 6.14885 4.14896C6.1355 4.21955 6.13617 4.29207 6.15085 4.3624C6.16552 4.43272 6.1939 4.49947 6.23437 4.55883L7.45773 6.35203ZM5.52343 11.4019C5.64239 11.4022 5.75821 11.3637 5.85332 11.2922C5.94843 11.2208 6.01766 11.1203 6.05049 11.006C6.08333 10.8916 6.07799 10.7697 6.03528 10.6587C5.99257 10.5476 5.91482 10.4536 5.81382 10.3907L4.4264 9.5157L4.41382 9.50804L2.57578 8.35031C2.51502 8.31083 2.44702 8.28382 2.37573 8.27085C2.30444 8.25788 2.23128 8.25921 2.16051 8.27475C2.08974 8.2903 2.02276 8.31975 1.96347 8.3614C1.90418 8.40306 1.85376 8.45608 1.81513 8.51738C1.77651 8.57869 1.75045 8.64706 1.73848 8.71852C1.7265 8.78999 1.72885 8.86312 1.74538 8.93367C1.76191 9.00421 1.7923 9.07077 1.83477 9.12948C1.87725 9.18818 1.93097 9.23786 1.99281 9.27562L5.23031 11.3204C5.31834 11.3747 5.41999 11.403 5.52343 11.4019ZM26.1581 7.96039C26.2472 7.9605 26.335 7.93883 26.4138 7.89728C26.4927 7.85572 26.5601 7.79553 26.6104 7.72195L27.5352 6.36625L27.5439 6.35203L28.7656 4.55883C28.8061 4.49947 28.8345 4.43272 28.8491 4.3624C28.8638 4.29207 28.8645 4.21955 28.8511 4.14896C28.8378 4.07837 28.8107 4.01111 28.7713 3.951C28.732 3.8909 28.6812 3.83914 28.6218 3.79867C28.5624 3.7582 28.4957 3.72982 28.4254 3.71515C28.355 3.70047 28.2825 3.69979 28.2119 3.71315C28.1413 3.72651 28.0741 3.75363 28.014 3.79299C27.9539 3.83234 27.9021 3.88314 27.8616 3.9425L25.7031 7.10562C25.6472 7.18776 25.6147 7.28359 25.6091 7.38281C25.6035 7.48203 25.6251 7.5809 25.6715 7.66879C25.7178 7.75668 25.7873 7.83027 25.8724 7.88164C25.9575 7.93302 26.0549 7.96024 26.1543 7.96039H26.1581ZM33.18 8.52094C33.1026 8.39833 32.9797 8.31149 32.8383 8.27949C32.6968 8.2475 32.5485 8.27297 32.4259 8.35031L30.5878 9.50969L30.5752 9.51734L29.1862 10.3907C29.0629 10.4681 28.9754 10.5913 28.9429 10.7332C28.9105 10.875 28.9357 11.024 29.0131 11.1473C29.0905 11.2706 29.2136 11.3581 29.3555 11.3905C29.4974 11.423 29.6464 11.3978 29.7697 11.3204L33.0072 9.27836C33.0684 9.24007 33.1214 9.19004 33.1632 9.13116C33.2049 9.07228 33.2346 9.00571 33.2505 8.9353C33.2664 8.86489 33.2683 8.79202 33.2559 8.7209C33.2435 8.64978 33.2171 8.58182 33.1784 8.52094H33.18Z" fill="black"/>
</svg>
