<svg width="35" height="35" viewBox="0 0 35 35" fill="none" xmlns="http://www.w3.org/2000/svg">
<g clip-path="url(#clip0_41_151)">
<path d="M16.7971 17.3381C16.6724 17.3816 16.5504 17.4323 16.4316 17.4901C15.5648 17.9486 14.8959 18.7087 14.5514 19.6269C13.9856 20.9465 11.3629 25.376 1.36155 26.8919C1.03802 26.937 0.748578 27.1166 0.564581 27.3865C0.383858 27.6531 0.32464 27.9838 0.401631 28.2965C0.624435 29.1042 1.02273 29.8528 1.56811 30.4889C1.60444 30.5538 1.65295 30.6111 1.71097 30.6576C2.75321 31.7731 4.04343 32.6275 5.4772 33.1518C5.4927 33.1581 5.50704 33.1655 5.52311 33.1707C6.20206 33.4381 6.89805 33.6601 7.60647 33.8351C8.85908 34.1448 10.1367 34.3426 11.4243 34.4261C11.4473 34.4308 11.4704 34.4341 11.4938 34.4359C11.5001 34.4359 11.5064 34.4319 11.5121 34.4319C11.8506 34.4514 12.1943 34.4651 12.5449 34.4651C14.7671 34.4651 17.2183 34.017 19.1863 32.5505C20.1335 33.1965 21.3447 33.3153 22.3994 32.8655C23.2804 33.8502 24.525 34.4329 25.8455 34.4788C27.166 34.5247 28.4481 34.0299 29.3954 33.1087C30.6783 33.714 32.1935 33.539 33.3047 32.6574C34.4159 31.7757 34.9308 30.34 34.6331 28.9531C34.3355 27.5662 33.2768 26.4682 31.9016 26.1202C31.48 24.6538 30.3256 23.5125 28.8545 23.1077C27.3833 22.7029 25.8075 23.093 24.6951 24.1373C24.054 23.7809 23.3104 23.6546 22.5876 23.7792C22.541 22.8635 22.44 21.9513 22.2852 21.0475C22.1019 19.9521 21.5467 18.9533 20.7131 18.2194L23.773 2.39022C23.8777 1.87159 23.7702 1.33266 23.4747 0.893824C23.0245 0.215073 22.2084 -0.123848 21.4098 0.0362956C20.6112 0.196439 19.9889 0.823813 19.8352 1.62366L16.7971 17.3381ZM24.4334 25.333C24.6769 25.5184 25.0231 25.48 25.2201 25.2458C26.0229 24.2938 27.3014 23.8878 28.5064 24.2023C29.7114 24.5168 30.6284 25.4957 30.8637 26.7187C30.9103 26.9593 31.1046 27.1437 31.3474 27.1777C32.3931 27.3249 33.2437 28.094 33.4952 29.1196C33.7466 30.1453 33.3482 31.2206 32.4891 31.8348C31.6301 32.449 30.4836 32.4781 29.5945 31.9084C29.353 31.754 29.0345 31.8015 28.8486 32.0197C28.114 32.8898 27.02 33.3736 25.882 33.3316C24.7441 33.2896 23.6887 32.7264 23.0202 31.8046C22.8438 31.5615 22.5097 31.4957 22.2543 31.6537C21.5175 32.1092 20.5834 32.0962 19.8596 31.6203C19.1359 31.1444 18.7538 30.2919 18.8801 29.4349C19.0064 28.578 19.6183 27.872 20.4486 27.6252C20.6892 27.5532 20.8549 27.333 20.8577 27.0819C20.8764 25.8635 21.8666 24.8841 23.0851 24.8786C23.5724 24.877 24.0465 25.0368 24.4334 25.333ZM19.7377 26.6676C18.5109 27.2091 17.7168 28.421 17.71 29.7619C17.7107 30.4749 17.9387 31.1691 18.3606 31.7437C16.9617 32.6719 15.3373 33.2037 13.6603 33.2826C14.6339 32.6395 15.5116 31.862 16.2675 30.9732C16.4707 30.7296 16.4379 30.3676 16.1944 30.1644C15.9509 29.9613 15.5888 29.9941 15.3856 30.2376C14.2712 31.516 12.9053 32.5511 11.3733 33.2786C10.1967 33.1919 9.02961 33.0052 7.88474 32.7203C7.78204 32.6945 7.69024 32.6629 7.5904 32.6388C10.6566 31.59 14.1687 29.7837 16.2543 26.7141C16.4266 26.4521 16.3568 26.1004 16.0975 25.9242C15.8382 25.748 15.4854 25.8125 15.3053 26.0692C13.0504 29.3901 8.89343 31.1315 5.72966 32.0163C4.85297 31.6692 4.03286 31.1935 3.2963 30.6048C5.53574 30.2839 7.71096 29.6136 9.74261 28.6184C9.92531 28.5218 10.0419 28.3343 10.0478 28.1277C10.0538 27.9211 9.94815 27.7273 9.77131 27.6203C9.59447 27.5133 9.37376 27.5097 9.19351 27.6109C7.09638 28.755 4.10647 29.3368 2.31745 29.6001C1.94894 29.1357 1.67947 28.6006 1.52565 28.028C10.3439 26.6905 13.8043 23.0844 15.0758 21.0699C15.2928 21.2789 15.5296 21.4664 15.7827 21.6299C16.6246 22.1564 17.6014 22.4269 18.5942 22.4085C18.659 22.4085 18.7233 22.4085 18.7887 22.4051C19.6293 22.3909 20.4639 22.26 21.2685 22.016C21.3678 22.7298 21.4281 23.4485 21.4493 24.1688C20.5172 24.6858 19.883 25.6117 19.7377 26.6676ZM21.0643 20.8673C20.318 21.1152 19.5382 21.247 18.752 21.2581C17.9292 21.3063 17.1115 21.1001 16.4098 20.6677C16.1224 20.4866 15.8653 20.2614 15.6479 20.0004C15.8909 19.3702 16.3485 18.846 16.94 18.5201C17.5935 18.2182 18.3447 18.2088 19.0056 18.4942C20.0282 18.9156 20.7915 19.7955 21.0643 20.8673ZM20.9621 1.84112C21.0525 1.3783 21.4984 1.07435 21.9622 1.15948C22.1903 1.20389 22.3913 1.33752 22.5205 1.53071C22.6464 1.71788 22.692 1.94766 22.6473 2.16874L19.6723 17.5458C19.5856 17.5051 19.5002 17.4586 19.4124 17.4242C18.962 17.2513 18.4849 17.1581 18.0026 17.1487L20.9621 1.84112Z" fill="black"/>
<path d="M26.974 26.7268C27.2065 26.4506 27.5771 26.3327 27.9264 26.4238C28.2758 26.5148 28.5417 26.7986 28.6098 27.1531C28.6618 27.4232 28.8982 27.6184 29.1733 27.6184C29.2099 27.6183 29.2463 27.6149 29.2823 27.6081C29.4317 27.5793 29.5636 27.4924 29.6489 27.3664C29.7343 27.2404 29.7661 27.0856 29.7373 26.9362C29.5852 26.1474 28.9934 25.5161 28.2161 25.3134C27.4388 25.1107 26.6141 25.3726 26.0961 25.9866C25.8918 26.229 25.9226 26.5912 26.165 26.7956C26.4074 27 26.7696 26.9692 26.974 26.7268Z" fill="black"/>
<path d="M30.123 19.7951C30.123 20.9042 31.0221 21.8033 32.1312 21.8033C33.2403 21.8033 34.1394 20.9042 34.1394 19.7951C34.1394 18.686 33.2403 17.7869 32.1312 17.7869C31.0221 17.7869 30.123 18.686 30.123 19.7951ZM32.9919 19.7951C32.9919 20.2704 32.6066 20.6557 32.1312 20.6557C31.6559 20.6557 31.2706 20.2704 31.2706 19.7951C31.2706 19.3197 31.6559 18.9344 32.1312 18.9344C32.6066 18.9344 32.9919 19.3197 32.9919 19.7951Z" fill="black"/>
<path d="M28.4017 17.7869C29.3524 17.7869 30.123 17.0162 30.123 16.0655C30.123 15.1149 29.3524 14.3442 28.4017 14.3442C27.4511 14.3442 26.6804 15.1149 26.6804 16.0655C26.6804 17.0162 27.4511 17.7869 28.4017 17.7869ZM28.4017 15.4918C28.7186 15.4918 28.9755 15.7487 28.9755 16.0655C28.9755 16.3824 28.7186 16.6393 28.4017 16.6393C28.0848 16.6393 27.828 16.3824 27.828 16.0655C27.828 15.7487 28.0848 15.4918 28.4017 15.4918Z" fill="black"/>
<path d="M4.30326 13.1967C4.62015 13.1967 4.87703 12.9398 4.87703 12.6229V11.4754C4.87703 11.1585 4.62015 10.9016 4.30326 10.9016C3.98638 10.9016 3.72949 11.1585 3.72949 11.4754V12.6229C3.72949 12.9398 3.98638 13.1967 4.30326 13.1967Z" fill="black"/>
<path d="M4.87703 16.0655V14.918C4.87703 14.6011 4.62015 14.3442 4.30326 14.3442C3.98638 14.3442 3.72949 14.6011 3.72949 14.918V16.0655C3.72949 16.3824 3.98638 16.6393 4.30326 16.6393C4.62015 16.6393 4.87703 16.3824 4.87703 16.0655Z" fill="black"/>
<path d="M2.0081 14.3441H3.15564C3.47252 14.3441 3.72941 14.0872 3.72941 13.7703C3.72941 13.4534 3.47252 13.1965 3.15564 13.1965H2.0081C1.69121 13.1965 1.43433 13.4534 1.43433 13.7703C1.43433 14.0872 1.69121 14.3441 2.0081 14.3441Z" fill="black"/>
<path d="M5.45072 14.3441H6.59826C6.91515 14.3441 7.17203 14.0872 7.17203 13.7703C7.17203 13.4534 6.91515 13.1965 6.59826 13.1965H5.45072C5.13384 13.1965 4.87695 13.4534 4.87695 13.7703C4.87695 14.0872 5.13384 14.3441 5.45072 14.3441Z" fill="black"/>
<path d="M6.47968 20.5368L5.61903 21.3975C5.46987 21.5415 5.41005 21.7548 5.46256 21.9554C5.51507 22.1561 5.67174 22.3127 5.87234 22.3652C6.07295 22.4177 6.28628 22.3579 6.43034 22.2088L7.29099 21.3481C7.50844 21.123 7.50533 20.7651 7.28401 20.5438C7.06268 20.3225 6.70482 20.3194 6.47968 20.5368Z" fill="black"/>
<path d="M9.87278 17.9549C9.64872 17.7309 9.28553 17.7309 9.06147 17.9549L8.20081 18.8155C8.05166 18.9596 7.99184 19.1729 8.04435 19.3735C8.09686 19.5741 8.25352 19.7308 8.45413 19.7833C8.65474 19.8358 8.86807 19.776 9.01213 19.6268L9.87278 18.7662C10.0968 18.5421 10.0968 18.1789 9.87278 17.9549Z" fill="black"/>
<path d="M9.01217 20.5368C8.78703 20.3194 8.42917 20.3225 8.20785 20.5438C7.98653 20.7651 7.98342 21.123 8.20086 21.3481L9.06151 22.2088C9.28665 22.4262 9.64451 22.4231 9.86584 22.2018C10.0872 21.9805 10.0903 21.6226 9.87283 21.3975L9.01217 20.5368Z" fill="black"/>
<path d="M7.29079 18.8157L6.43014 17.955C6.205 17.7376 5.84714 17.7407 5.62582 17.962C5.40449 18.1833 5.40138 18.5412 5.61883 18.7663L6.47948 19.627C6.70462 19.8444 7.06248 19.8413 7.28381 19.62C7.50513 19.3987 7.50824 19.0408 7.29079 18.8157Z" fill="black"/>
<path d="M7.07219 5.77886L16.8263 7.50017C16.8594 7.50614 16.893 7.50902 16.9267 7.50878C17.2231 7.50727 17.4696 7.28018 17.4954 6.98486C17.5211 6.68953 17.3177 6.42321 17.026 6.37042L7.27186 4.64911C6.96354 4.60158 6.67374 4.80911 6.61944 5.11632C6.56515 5.42353 6.76626 5.71782 7.07219 5.77886Z" fill="black"/>
<path d="M16.2526 10.3691C16.2857 10.3751 16.3193 10.378 16.353 10.3777C16.6494 10.3762 16.8959 10.1491 16.9217 9.85381C16.9474 9.55848 16.744 9.29216 16.4523 9.23937L10.2332 8.14117C9.92104 8.08603 9.62331 8.29437 9.56817 8.6065C9.51303 8.91863 9.72137 9.21636 10.0335 9.2715L16.2526 10.3691Z" fill="black"/>
<path d="M7.69432 11.1958C7.6678 11.3457 7.70194 11.5 7.78921 11.6247C7.87648 11.7494 8.00974 11.8344 8.15965 11.8608L15.6789 13.188C15.7119 13.1936 15.7453 13.1965 15.7787 13.1966C16.0764 13.1967 16.3248 12.9692 16.3506 12.6726C16.3765 12.3761 16.1712 12.109 15.878 12.0576L8.35875 10.7293C8.20877 10.703 8.05448 10.7374 7.92986 10.8249C7.80524 10.9124 7.7205 11.0458 7.69432 11.1958Z" fill="black"/>
</g>
<defs>
<clipPath id="clip0_41_151">
<rect width="35" height="35" fill="white"/>
</clipPath>
</defs>
</svg>
