<svg width="34" height="34" viewBox="0 0 34 34" fill="none" xmlns="http://www.w3.org/2000/svg">
<g clip-path="url(#clip0_15_381)">
<path d="M33.9869 16.2585C33.9229 15.6561 33.6282 15.1156 33.1381 14.7206L30.0334 12.4228V6.79986H25.5001V9.06818L17.0337 2.80322L0.885089 14.167C0.405131 14.5359 0.0974356 15.0702 0.0192369 15.6703C-0.0589618 16.271 0.101402 16.8654 0.470296 17.3453C1.23302 18.3359 2.65759 18.5217 3.62601 17.7771L3.96714 17.5408V18.8991C3.29962 19.2187 2.83382 19.8953 2.83382 20.6835C2.83382 21.4717 3.29962 22.1483 3.96714 22.4679V24.5657C3.29962 24.8853 2.83382 25.5619 2.83382 26.3501C2.83382 27.1383 3.29962 27.8149 3.96714 28.1345V30.2323C3.29962 30.5519 2.83382 31.2285 2.83382 32.0167C2.83382 33.1103 3.72348 34 4.81712 34H13.0337H14.167H19.8335H20.9669H29.1834C30.277 34 31.1667 33.1103 31.1667 32.0167C31.1667 31.0205 30.4255 30.2011 29.4667 30.0623V28.3045C30.4255 28.1657 31.1667 27.3463 31.1667 26.3501C31.1667 25.3539 30.4255 24.5345 29.4667 24.3957V22.6379C30.4255 22.4991 31.1667 21.6797 31.1667 20.6835C31.1667 19.6873 30.4255 18.868 29.4667 18.7291V17.6485L30.3207 18.2713C30.7366 18.6033 31.2347 18.7643 31.7305 18.7643C32.3924 18.7643 33.0491 18.4764 33.4968 17.9228C33.877 17.4519 34.0515 16.8609 33.9869 16.2585ZM26.6334 7.93374H28.9001V11.5841L26.6334 9.90684V7.93374ZM13.0337 28.3334V30.0334H5.10045V28.3334H13.0337ZM5.10045 24.3668V22.6668H13.0337V24.3668H5.10045ZM4.81712 25.5001H13.0337V27.2001H4.81712C4.3485 27.2001 3.96714 26.8187 3.96714 26.3501C3.96714 25.8815 4.3485 25.5001 4.81712 25.5001ZM13.0337 32.8667H4.81712C4.3485 32.8667 3.96714 32.4853 3.96714 32.0167C3.96714 31.548 4.3485 31.1667 4.81712 31.1667H13.0337V32.8667ZM19.8335 32.8667H14.167V30.6V30.0334V28.3334V27.7667V24.9335V24.3668V22.6668H19.8335V24.3668V24.9335V27.7667V28.3334V30.0334V30.6V32.8667ZM20.9669 24.3668V22.6668H28.3334V24.3668H20.9669ZM20.9669 30.0334V28.3334H28.3334V30.0334H20.9669ZM30.0334 32.0167C30.0334 32.4853 29.652 32.8667 29.1834 32.8667H20.9669V31.1667H29.1834C29.652 31.1667 30.0334 31.548 30.0334 32.0167ZM30.0334 26.3501C30.0334 26.8187 29.652 27.2001 29.1834 27.2001H20.9669V25.5001H29.1834C29.652 25.5001 30.0334 25.8815 30.0334 26.3501ZM30.0334 20.6835C30.0334 21.1522 29.652 21.5335 29.1834 21.5335H20.9669H13.0337H4.81712C4.3485 21.5335 3.96714 21.1522 3.96714 20.6835C3.96714 20.2149 4.3485 19.8335 4.81712 19.8335H13.6003H20.4002H29.1834C29.652 19.8335 30.0334 20.2149 30.0334 20.6835ZM19.2669 18.7002H17.5669V17.0003H19.2669V18.7002ZM19.2669 15.8669H17.5669V14.167H19.2669V15.8669ZM16.4336 15.8669H14.7336V14.167H16.4336V15.8669ZM14.7336 17.0003H16.4336V18.7002H14.7336V17.0003ZM22.6668 17.0003H28.3334V18.7002H20.4002V13.0337H13.6003V18.7002H5.10045V17.0003H11.3337C11.647 17.0003 11.9003 16.747 11.9003 16.4336C11.9003 16.1202 11.647 15.8669 11.3337 15.8669H6.3811L8.83302 14.167H11.9003V13.0337H10.4678L12.9198 11.3337H20.8127L22.1704 12.3242L23.1428 13.0337H22.1007V14.167H24.696L27.0261 15.8669H22.6674C22.354 15.8669 22.1007 16.1202 22.1007 16.4336C22.1007 16.747 22.3535 17.0003 22.6668 17.0003ZM14.554 10.2004L16.9668 8.52759L19.2595 10.2004H14.554ZM32.6145 17.211C32.2224 17.6961 31.5067 17.7737 31.0205 17.3805L29.4338 16.2228L28.9488 15.8669H28.9465L26.617 14.167H26.6181L21.1816 10.2004L16.9827 7.13645L12.5645 10.2004L6.84349 14.167H6.84462L4.35756 15.8913L4.35417 15.8919L4.15357 16.033L2.95792 16.862C2.46153 17.2428 1.74867 17.1499 1.36845 16.6552C1.18372 16.4149 1.10382 16.1174 1.14292 15.8171C1.18202 15.5167 1.33615 15.2498 1.55601 15.0793L17.0173 4.20117L25.5001 10.478L26.7451 11.3994L32.4456 15.6176C32.6808 15.8074 32.8287 16.0783 32.8599 16.3792C32.8922 16.6795 32.8049 16.9753 32.6145 17.211Z" fill="#616161"/>
<path d="M15.3003 28.3333C15.6133 28.3333 15.867 28.0796 15.867 27.7666C15.867 27.4537 15.6133 27.2 15.3003 27.2C14.9873 27.2 14.7336 27.4537 14.7336 27.7666C14.7336 28.0796 14.9873 28.3333 15.3003 28.3333Z" fill="#616161"/>
<path d="M26.6334 6.23365C26.7808 6.23365 26.9281 6.17132 27.0358 6.06932C27.1378 5.96166 27.2001 5.81433 27.2001 5.667C27.2001 5.51967 27.1378 5.37177 27.0358 5.26467C26.8261 5.05501 26.4408 5.05501 26.2311 5.26467C26.1285 5.37177 26.0668 5.51967 26.0668 5.667C26.0668 5.81433 26.1285 5.96166 26.2311 6.06932C26.3382 6.17075 26.4861 6.23365 26.6334 6.23365Z" fill="#616161"/>
<path d="M28.9 6.23368C29.2134 6.23368 29.4667 5.98039 29.4667 5.66703V3.4004C29.4667 3.08704 29.2134 2.83374 28.9 2.83374C28.5867 2.83374 28.3334 3.08704 28.3334 3.4004V5.66703C28.3334 5.97982 28.5867 6.23368 28.9 6.23368Z" fill="#616161"/>
<path d="M28.9 2.26712C29.2134 2.26712 29.4667 2.01382 29.4667 1.70046V0.567146C29.4667 0.253784 29.2134 0.000488281 28.9 0.000488281C28.5867 0.000488281 28.3334 0.253784 28.3334 0.567146V1.70046C28.3334 2.01325 28.5867 2.26712 28.9 2.26712Z" fill="#616161"/>
<path d="M26.6334 4.53372C26.9468 4.53372 27.2001 4.28042 27.2001 3.96706V2.83375C27.2001 2.52039 26.9468 2.26709 26.6334 2.26709C26.3201 2.26709 26.0668 2.52039 26.0668 2.83375V3.96706C26.0668 4.27986 26.3201 4.53372 26.6334 4.53372Z" fill="#616161"/>
<path d="M26.6334 1.70046C26.9468 1.70046 27.2001 1.44716 27.2001 1.1338V0.567146C27.2001 0.253784 26.9468 0.000488281 26.6334 0.000488281C26.3201 0.000488281 26.0668 0.253784 26.0668 0.567146V1.1338C26.0668 1.4466 26.3201 1.70046 26.6334 1.70046Z" fill="#616161"/>
</g>
<defs>
<clipPath id="clip0_15_381">
<rect width="34" height="34" fill="white"/>
</clipPath>
</defs>
</svg>
