<svg width="34" height="34" viewBox="0 0 34 34" fill="none" xmlns="http://www.w3.org/2000/svg">
<path d="M26.2483 22.3875H7.78745C7.5677 22.3875 7.3894 22.2092 7.3894 21.9895V10.037C7.3894 9.81721 7.5677 9.63892 7.78745 9.63892H26.249C26.4688 9.63892 26.6471 9.81721 26.6471 10.037V21.9895C26.6464 22.2092 26.4688 22.3875 26.2483 22.3875ZM8.1855 21.5914H25.851V10.435H8.1855V21.5914Z" fill="#616161"/>
<path d="M27.6443 10.4351H22.4309C22.31 10.4351 22.1953 10.3798 22.1199 10.2851L18.2023 5.37583C18.107 5.25628 18.0883 5.0925 18.1547 4.95498C18.221 4.81746 18.3606 4.7297 18.5133 4.7297H23.1828C23.2947 4.7297 23.4019 4.77669 23.4772 4.8603L27.938 9.77026C28.0437 9.88705 28.0713 10.055 28.0071 10.1987C27.9442 10.3425 27.8018 10.4351 27.6443 10.4351ZM22.6223 9.63896H26.7445L23.0066 5.5251H19.3398L22.6223 9.63896ZM11.6048 10.4351H6.39149C6.23393 10.4351 6.09157 10.3425 6.0273 10.198C5.96372 10.0543 5.99067 9.88567 6.09641 9.76957L10.5579 4.85961C10.6332 4.77669 10.7403 4.729 10.8523 4.729H15.5217C15.6745 4.729 15.814 4.81677 15.8804 4.95429C15.9467 5.09181 15.9281 5.25559 15.8327 5.37514L11.9158 10.2851C11.8405 10.3805 11.7264 10.4351 11.6048 10.4351ZM7.29124 9.63896H11.4134L14.6952 5.5251H11.0292L7.29124 9.63896Z" fill="#616161"/>
<path d="M22.431 10.4349H11.6049C11.4522 10.4349 11.3126 10.3472 11.2463 10.2097C11.1799 10.0721 11.1986 9.90835 11.2939 9.7888L16.707 3.0047C16.7823 2.91002 16.897 2.85474 17.018 2.85474C17.1389 2.85474 17.2536 2.91002 17.3289 3.0047L22.742 9.7888C22.8373 9.90835 22.856 10.0721 22.7897 10.2097C22.7233 10.3479 22.5837 10.4349 22.431 10.4349ZM12.4321 9.63884H21.6038L17.018 3.89132L12.4321 9.63884Z" fill="#616161"/>
<path d="M17.018 9.03082C16.0913 9.03082 15.338 8.27687 15.338 7.35086C15.338 6.42415 16.092 5.6709 17.018 5.6709C17.9447 5.6709 18.6979 6.42484 18.6979 7.35086C18.6979 8.27687 17.9447 9.03082 17.018 9.03082ZM17.018 6.46631C16.5308 6.46631 16.1341 6.86297 16.1341 7.35017C16.1341 7.83736 16.5308 8.23403 17.018 8.23403C17.5052 8.23403 17.9018 7.83736 17.9018 7.35017C17.9018 6.86297 17.5052 6.46631 17.018 6.46631Z" fill="#616161"/>
<path d="M27.6698 24.0294H6.36594C6.14619 24.0294 5.9679 23.8511 5.9679 23.6313V21.9894C5.9679 21.7696 6.14619 21.5913 6.36594 21.5913H27.6698C27.8896 21.5913 28.0679 21.7696 28.0679 21.9894V23.6313C28.0679 23.8511 27.8896 24.0294 27.6698 24.0294ZM6.76399 23.2333H27.2711V22.3874H6.76399V23.2333Z" fill="#616161"/>
<path d="M19.0268 22.3875H15.0083C14.7885 22.3875 14.6102 22.2092 14.6102 21.9895V16.5923C14.6102 15.819 15.2391 15.1895 16.0131 15.1895H18.0227C18.796 15.1895 19.4255 15.8183 19.4255 16.5923V21.9895C19.4248 22.2092 19.2472 22.3875 19.0268 22.3875ZM15.4063 21.5914H18.6287V16.5923C18.6287 16.2578 18.3564 15.9856 18.022 15.9856H16.0124C15.6779 15.9856 15.4056 16.2578 15.4056 16.5923V21.5914H15.4063Z" fill="#616161"/>
<path d="M13.2918 19.1421H9.13645C8.9167 19.1421 8.7384 18.9638 8.7384 18.7441V15.3807C8.7384 15.161 8.9167 14.9827 9.13645 14.9827H13.2918C13.5115 14.9827 13.6898 15.161 13.6898 15.3807V18.7441C13.6898 18.9638 13.5115 19.1421 13.2918 19.1421ZM9.5345 18.346H12.8937V15.7788H9.5345V18.346Z" fill="#616161"/>
<path d="M11.2145 19.1421C10.9947 19.1421 10.8164 18.9638 10.8164 18.7441V15.3807C10.8164 15.161 10.9947 14.9827 11.2145 14.9827C11.4342 14.9827 11.6125 15.161 11.6125 15.3807V18.7441C11.6125 18.9638 11.4342 19.1421 11.2145 19.1421Z" fill="#616161"/>
<path d="M24.8545 19.2605H20.6992C20.4794 19.2605 20.3011 19.0823 20.3011 18.8625V15.4991C20.3011 15.2794 20.4794 15.1011 20.6992 15.1011H24.8545C25.0743 15.1011 25.2526 15.2794 25.2526 15.4991V18.8625C25.2526 19.0823 25.0743 19.2605 24.8545 19.2605ZM21.0972 18.4644H24.4565V15.8972H21.0972V18.4644Z" fill="#616161"/>
<path d="M22.7772 19.2605C22.5574 19.2605 22.3792 19.0823 22.3792 18.8625V15.4991C22.3792 15.2794 22.5574 15.1011 22.7772 15.1011C22.997 15.1011 23.1752 15.2794 23.1752 15.4991V18.8625C23.1752 19.0823 22.997 19.2605 22.7772 19.2605Z" fill="#616161"/>
<path d="M13.2918 17.6682H9.13645C8.9167 17.6682 8.7384 17.4899 8.7384 17.2701C8.7384 17.0504 8.9167 16.8721 9.13645 16.8721H13.2918C13.5115 16.8721 13.6898 17.0504 13.6898 17.2701C13.6898 17.4899 13.5115 17.6682 13.2918 17.6682Z" fill="#616161"/>
<path d="M24.8545 17.7863H20.6992C20.4794 17.7863 20.3011 17.608 20.3011 17.3883C20.3011 17.1685 20.4794 16.9902 20.6992 16.9902H24.8545C25.0743 16.9902 25.2526 17.1685 25.2526 17.3883C25.2526 17.608 25.0743 17.7863 24.8545 17.7863Z" fill="#616161"/>
<path d="M30.6331 24.0295H3.40269C3.18293 24.0295 3.00464 23.8512 3.00464 23.6314C3.00464 23.4117 3.18293 23.2334 3.40269 23.2334H30.6331C30.8528 23.2334 31.0311 23.4117 31.0311 23.6314C31.0311 23.8512 30.8528 24.0295 30.6331 24.0295Z" fill="#616161"/>
<path d="M13.8287 26.9926C12.5447 26.9926 11.3962 26.7535 10.2684 26.5185C8.19454 26.0866 6.23608 25.6789 3.52438 26.7404C3.31982 26.8205 3.08901 26.7196 3.00885 26.5144C2.92869 26.3098 3.02958 26.079 3.23413 25.9989C6.16629 24.8517 8.33413 25.303 10.4308 25.7397C12.4252 26.1551 14.3083 26.5469 16.8922 25.6817C19.6799 24.7481 21.7586 25.1807 23.7689 25.5994C25.8428 26.0314 27.8012 26.4391 30.5129 25.3776C30.7182 25.2975 30.9483 25.3983 31.0284 25.6036C31.1086 25.8088 31.0077 26.039 30.8025 26.1191C27.8703 27.2663 25.7025 26.815 23.6058 26.3783C21.6114 25.9629 19.7283 25.5711 17.1444 26.4363C15.9206 26.8461 14.8328 26.9926 13.8287 26.9926Z" fill="#616161"/>
<path d="M13.8287 29.1205C12.5447 29.1205 11.3962 28.8814 10.2684 28.6465C8.19454 28.2146 6.23608 27.8068 3.52438 28.8683C3.31982 28.9485 3.08901 28.8476 3.00885 28.6423C2.92869 28.4378 3.02958 28.207 3.23413 28.1268C6.16629 26.9796 8.33413 27.4309 10.4308 27.8677C12.4252 28.283 14.3083 28.6748 16.8922 27.8096C19.6799 26.876 21.7586 27.3086 23.7689 27.7274C25.8428 28.1593 27.8012 28.567 30.5129 27.5055C30.7182 27.4254 30.9483 27.5263 31.0284 27.7315C31.1086 27.9368 31.0077 28.1669 30.8025 28.247C27.8703 29.3942 25.7025 28.9429 23.6058 28.5062C21.6114 28.0909 19.7283 27.699 17.1444 28.5642C15.9206 28.974 14.8328 29.1205 13.8287 29.1205Z" fill="#616161"/>
<path d="M13.8287 31.2475C12.5447 31.2475 11.3962 31.0084 10.2684 30.7734C8.19454 30.3415 6.23608 29.9338 3.52438 30.9953C3.31982 31.0754 3.08901 30.9745 3.00885 30.7693C2.92869 30.5647 3.02958 30.3339 3.23413 30.2538C6.16629 29.1066 8.33413 29.5579 10.4308 29.9946C12.4252 30.4099 14.3083 30.8018 16.8922 29.9366C19.6799 29.0029 21.7586 29.4355 23.7689 29.8543C25.8428 30.2862 27.8012 30.694 30.5129 29.6332C30.7182 29.553 30.9483 29.6539 31.0284 29.8592C31.1086 30.0644 31.0077 30.2945 30.8025 30.3747C27.8703 31.5218 25.7025 31.0706 23.6058 30.6338C21.6114 30.2185 19.7283 29.8267 17.1444 30.6919C15.9206 31.101 14.8328 31.2475 13.8287 31.2475Z" fill="#616161"/>
<path d="M30.0264 22.442C28.7494 22.442 27.7107 21.4033 27.7107 20.1263C27.7107 19.5112 27.9595 18.9204 28.3886 18.4892C28.3119 18.2915 28.2725 18.0807 28.2725 17.8651C28.2725 16.9129 29.0472 16.1382 29.9995 16.1382C30.9518 16.1382 31.7264 16.9129 31.7264 17.8651C31.7264 18.0655 31.6919 18.2632 31.6248 18.4491C32.0796 18.8831 32.3428 19.4884 32.3428 20.1256C32.3428 21.4027 31.3042 22.442 30.0264 22.442ZM29.9995 16.9343C29.486 16.9343 29.0686 17.3517 29.0686 17.8651C29.0686 18.0448 29.1198 18.2196 29.2172 18.3696C29.3312 18.5458 29.2891 18.7801 29.1205 18.9052C28.7307 19.1954 28.5068 19.6405 28.5068 20.1256C28.5068 20.9638 29.1889 21.6459 30.0271 21.6459C30.8654 21.6459 31.5474 20.9638 31.5474 20.1256C31.5474 19.6329 31.307 19.1685 30.9041 18.8838C30.7327 18.7628 30.685 18.5292 30.7949 18.3509C30.884 18.2051 30.9317 18.0372 30.9317 17.8651C30.9303 17.3517 30.5129 16.9343 29.9995 16.9343Z" fill="#616161"/>
<path d="M30.0263 24.0294C29.8066 24.0294 29.6283 23.8511 29.6283 23.6314V19.2901C29.6283 19.0704 29.8066 18.8921 30.0263 18.8921C30.2461 18.8921 30.4244 19.0704 30.4244 19.2901V23.6314C30.4244 23.8511 30.2468 24.0294 30.0263 24.0294Z" fill="#616161"/>
<path d="M30.027 20.5209C29.922 20.5209 29.8169 20.4794 29.7388 20.3972C29.5875 20.2376 29.5937 19.986 29.7527 19.8347L30.4859 19.1374C30.6455 18.9861 30.8971 18.9923 31.0484 19.1512C31.1997 19.3109 31.1935 19.5624 31.0346 19.7137L30.3014 20.411C30.224 20.485 30.1251 20.5209 30.027 20.5209Z" fill="#616161"/>
<path d="M30.0264 21.3598C29.9275 21.3598 29.8294 21.3232 29.752 21.2499L29.0188 20.5526C28.8599 20.4013 28.8529 20.1491 29.005 19.9901C29.1563 19.8312 29.4086 19.8243 29.5675 19.9763L30.3007 20.6736C30.4597 20.8249 30.4666 21.0771 30.3145 21.2361C30.2371 21.319 30.1321 21.3598 30.0264 21.3598Z" fill="#616161"/>
<path d="M4.00946 22.442C2.73238 22.442 1.69373 21.4033 1.69373 20.1263C1.69373 19.5112 1.94251 18.9204 2.37165 18.4892C2.29495 18.2915 2.25555 18.0807 2.25555 17.8651C2.25555 16.9129 3.03023 16.1382 3.98251 16.1382C4.93478 16.1382 5.70946 16.9129 5.70946 17.8651C5.70946 18.0655 5.6749 18.2632 5.60787 18.4491C6.06259 18.8831 6.32588 19.4884 6.32588 20.1256C6.32519 21.4027 5.28653 22.442 4.00946 22.442ZM3.98182 16.9343C3.46836 16.9343 3.05096 17.3517 3.05096 17.8651C3.05096 18.0448 3.1021 18.2196 3.19954 18.3696C3.31356 18.5458 3.27141 18.7801 3.10279 18.9052C2.71303 19.1954 2.48913 19.6405 2.48913 20.1256C2.48913 20.9638 3.17121 21.6459 4.00946 21.6459C4.84771 21.6459 5.52978 20.9638 5.52978 20.1256C5.52978 19.6329 5.28929 19.1685 4.88641 18.8838C4.71503 18.7628 4.66734 18.5292 4.77722 18.3509C4.86637 18.2051 4.91405 18.0372 4.91405 17.8651C4.91267 17.3517 4.49527 16.9343 3.98182 16.9343Z" fill="#616161"/>
<path d="M4.0095 24.0294C3.78974 24.0294 3.61145 23.8511 3.61145 23.6314V19.2901C3.61145 19.0704 3.78974 18.8921 4.0095 18.8921C4.22926 18.8921 4.40755 19.0704 4.40755 19.2901V23.6314C4.40686 23.8511 4.22926 24.0294 4.0095 24.0294Z" fill="#616161"/>
<path d="M4.00943 20.5209C3.90439 20.5209 3.79935 20.4794 3.72126 20.3972C3.56992 20.2376 3.57614 19.986 3.73508 19.8347L4.46829 19.1374C4.62793 18.9861 4.87947 18.9923 5.03081 19.1512C5.18216 19.3109 5.17594 19.5624 5.01699 19.7137L4.28378 20.411C4.20638 20.485 4.10756 20.5209 4.00943 20.5209Z" fill="#616161"/>
<path d="M4.00878 21.3598C3.90996 21.3598 3.81183 21.3231 3.73443 21.2499L3.00122 20.5526C2.84228 20.4013 2.83537 20.149 2.9874 19.9901C3.13874 19.8311 3.39098 19.8249 3.54992 19.9763L4.28313 20.6735C4.44207 20.8249 4.44898 21.0771 4.29695 21.2361C4.21955 21.319 4.11451 21.3598 4.00878 21.3598Z" fill="#616161"/>
</svg>
