<svg width="21" height="21" viewBox="0 0 21 21" fill="none" xmlns="http://www.w3.org/2000/svg">
<path d="M7.84152 16.547L8.30583 15.958L7.84152 16.547ZM10.5 4.81302L9.95963 5.33312C10.101 5.48002 10.2961 5.56302 10.5 5.56302C10.7039 5.56302 10.899 5.48002 11.0404 5.33312L10.5 4.81302ZM13.1585 16.547L13.6228 17.136L13.1585 16.547ZM8.30583 15.958C6.97407 14.9081 5.5343 13.8948 4.3911 12.6075C3.27361 11.3492 2.5 9.8884 2.5 7.99493H1C1 10.3565 1.98489 12.157 3.26953 13.6036C4.52846 15.0211 6.13445 16.1563 7.3772 17.136L8.30583 15.958ZM2.5 7.99493C2.5 6.148 3.54349 4.60403 4.96029 3.9564C6.32981 3.33039 8.1829 3.48716 9.95963 5.33312L11.0404 4.29292C8.87974 2.04811 6.35783 1.6683 4.33669 2.59217C2.36283 3.49443 1 5.5868 1 7.99493H2.5ZM7.3772 17.136C7.82455 17.4886 8.31074 17.8696 8.80492 18.1583C9.29886 18.447 9.8721 18.6875 10.5 18.6875V17.1875C10.2529 17.1875 9.95114 17.0908 9.56171 16.8632C9.17252 16.6358 8.76697 16.3215 8.30583 15.958L7.3772 17.136ZM13.6228 17.136C14.8656 16.1563 16.4715 15.0211 17.7305 13.6036C19.0151 12.157 20 10.3565 20 7.99493H18.5C18.5 9.8884 17.7264 11.3492 16.6089 12.6075C15.4657 13.8948 14.0259 14.9081 12.6942 15.958L13.6228 17.136ZM20 7.99493C20 5.5868 18.6372 3.49443 16.6633 2.59217C14.6422 1.6683 12.1203 2.04811 9.95963 4.29292L11.0404 5.33312C12.8171 3.48716 14.6702 3.33039 16.0397 3.9564C17.4565 4.60403 18.5 6.148 18.5 7.99493H20ZM12.6942 15.958C12.233 16.3215 11.8275 16.6358 11.4383 16.8632C11.0489 17.0908 10.7471 17.1875 10.5 17.1875V18.6875C11.1279 18.6875 11.7011 18.447 12.1951 18.1583C12.6893 17.8696 13.1755 17.4886 13.6228 17.136L12.6942 15.958Z" fill="#161117"/>
</svg>
