<svg width="34" height="34" viewBox="0 0 34 34" fill="none" xmlns="http://www.w3.org/2000/svg">
<path d="M31.3426 27.6919C31.3434 27.6694 31.3438 27.6471 31.3438 27.625C31.3432 27.0616 31.1191 26.5215 30.7207 26.1231C30.3223 25.7247 29.7822 25.5006 29.2188 25.5V15.6719L31.1313 14.2375C31.1977 14.1877 31.2515 14.123 31.2884 14.0486C31.3253 13.9742 31.3443 13.8922 31.3438 13.8092C31.3433 13.7262 31.3233 13.6444 31.2855 13.5705C31.2476 13.4966 31.193 13.4326 31.126 13.3836L26.5626 10.0487V4.25C26.7034 4.25 26.8386 4.19403 26.9382 4.0944C27.0378 3.99477 27.0938 3.85965 27.0938 3.71875V1.59375C27.0938 1.45285 27.0378 1.31773 26.9382 1.2181C26.8386 1.11847 26.7034 1.0625 26.5626 1.0625H21.2501C21.1092 1.0625 20.974 1.11847 20.8744 1.2181C20.7748 1.31773 20.7188 1.45285 20.7188 1.59375V3.71875C20.7188 3.85965 20.7748 3.99477 20.8744 4.0944C20.974 4.19403 21.1092 4.25 21.2501 4.25V6.16655L17.3135 3.28983C17.2225 3.22335 17.1127 3.18752 17.0001 3.18752C16.8874 3.18752 16.7776 3.22335 16.6866 3.28983L2.87411 13.3836C2.80708 13.4326 2.75246 13.4966 2.71463 13.5705C2.67681 13.6444 2.65684 13.7262 2.65632 13.8092C2.65581 13.8922 2.67476 13.9742 2.71166 14.0486C2.74856 14.123 2.80238 14.1877 2.8688 14.2375L4.7813 15.6719V25.5C4.21791 25.5006 3.67778 25.7247 3.2794 26.1231C2.88102 26.5215 2.65693 27.0616 2.6563 27.625C2.6563 27.6471 2.6567 27.6694 2.6575 27.6919C2.15632 27.8208 1.71939 28.1281 1.42868 28.5562C1.13797 28.9843 1.01346 29.5038 1.07851 30.0171C1.14356 30.5305 1.3937 31.0025 1.782 31.3446C2.1703 31.6866 2.67008 31.8752 3.18755 31.875H30.8126C31.33 31.8752 31.8298 31.6866 32.2181 31.3446C32.6064 31.0025 32.8565 30.5305 32.9216 30.0171C32.9866 29.5038 32.8621 28.9843 32.5714 28.5562C32.2807 28.1281 31.8438 27.8208 31.3426 27.6919ZM21.7813 2.125H26.0313V3.1875H21.7813V2.125ZM22.3126 6.90625V4.25H25.5001V9.2723L22.2623 6.90625H22.3126ZM17.0001 4.3767L29.9197 13.8181L28.6827 14.7458L17.3126 6.4766C17.2218 6.41054 17.1123 6.37496 17.0001 6.37496C16.8878 6.37496 16.7784 6.41054 16.6875 6.4766L5.3174 14.7458L4.08038 13.8181L17.0001 4.3767ZM2.12505 29.75C2.12535 29.471 2.2352 29.2034 2.43096 29.0046C2.62671 28.8059 2.8927 28.692 3.17161 28.6875H3.17288C3.20004 28.6913 3.2272 28.6945 3.25489 28.6963C3.34292 28.7019 3.43096 28.6854 3.51104 28.6485C3.59113 28.6115 3.66075 28.5551 3.71362 28.4845C3.76648 28.4139 3.80094 28.3313 3.81386 28.244C3.82679 28.1567 3.81779 28.0676 3.78767 27.9847C3.7437 27.8698 3.72039 27.748 3.7188 27.625C3.71914 27.3433 3.83119 27.0733 4.03037 26.8741C4.22956 26.6749 4.49961 26.5628 4.7813 26.5625V30.8125H3.18755C2.90586 30.8122 2.63581 30.7001 2.43662 30.5009C2.23743 30.3017 2.12539 30.0317 2.12505 29.75ZM24.9688 30.8125H18.5938V19.125H24.9688V30.8125ZM26.0313 30.8125V18.5938C26.0313 18.4529 25.9753 18.3177 25.8757 18.2181C25.7761 18.1185 25.6409 18.0625 25.5001 18.0625H18.0626C17.9217 18.0625 17.7865 18.1185 17.6869 18.2181C17.5873 18.3177 17.5313 18.4529 17.5313 18.5938V30.8125H5.8438V15.6768L17.0001 7.56314L28.1563 15.6768V30.8125H26.0313ZM30.8126 30.8125H29.2188V26.5625C29.5005 26.5628 29.7705 26.6749 29.9697 26.8741C30.1689 27.0733 30.281 27.3433 30.2813 27.625C30.2797 27.7481 30.2564 27.87 30.2124 27.985C30.1823 28.0679 30.1733 28.157 30.1862 28.2443C30.1992 28.3315 30.2336 28.4142 30.2865 28.4848C30.3394 28.5554 30.409 28.6117 30.4891 28.6487C30.5691 28.6857 30.6572 28.7022 30.7452 28.6966C30.7729 28.6948 30.8001 28.6916 30.8272 28.6878H30.8285C31.1103 28.6899 31.3797 28.8038 31.5775 29.0046C31.7752 29.2054 31.8851 29.4764 31.883 29.7582C31.8809 30.04 31.7669 30.3094 31.5662 30.5072C31.3654 30.705 31.0943 30.8149 30.8126 30.8128V30.8125Z" fill="#616161"/>
<path d="M14.875 18.0625H8.5C8.3591 18.0625 8.22398 18.1185 8.12435 18.2181C8.02472 18.3177 7.96875 18.4529 7.96875 18.5938V26.0312C7.96875 26.1721 8.02472 26.3073 8.12435 26.4069C8.22398 26.5065 8.3591 26.5625 8.5 26.5625H14.875C15.0159 26.5625 15.151 26.5065 15.2507 26.4069C15.3503 26.3073 15.4062 26.1721 15.4062 26.0312V18.5938C15.4062 18.4529 15.3503 18.3177 15.2507 18.2181C15.151 18.1185 15.0159 18.0625 14.875 18.0625ZM14.3438 21.7812H12.2188V19.125H14.3438V21.7812ZM11.1562 19.125V21.7812H9.03125V19.125H11.1562ZM9.03125 22.8438H11.1562V25.5H9.03125V22.8438ZM12.2188 25.5V22.8438H14.3438V25.5H12.2188Z" fill="#616161"/>
<path d="M20.6783 24.6409C20.7906 24.3698 20.6619 24.0591 20.3908 23.9468C20.1198 23.8345 19.809 23.9632 19.6967 24.2343C19.5844 24.5054 19.7132 24.8161 19.9842 24.9284C20.2553 25.0407 20.5661 24.912 20.6783 24.6409Z" fill="#616161"/>
</svg>
