<svg width="35" height="35" viewBox="0 0 35 35" fill="none" xmlns="http://www.w3.org/2000/svg">
<g clip-path="url(#clip0_41_227)">
<path d="M17.5 14.7656C12.582 14.7656 3.28125 15.4514 3.28125 18.0469C3.28125 20.6423 12.582 21.3281 17.5 21.3281C22.418 21.3281 31.7188 20.6423 31.7188 18.0469C31.7188 15.4514 22.418 14.7656 17.5 14.7656ZM17.5 20.2344C8.84023 20.2344 4.375 18.7031 4.375 18.0469C4.375 17.3906 8.84023 15.8594 17.5 15.8594C26.1598 15.8594 30.625 17.3906 30.625 18.0469C30.625 18.7031 26.1598 20.2344 17.5 20.2344Z" fill="black"/>
<path d="M17.5 12.5781C9.28156 12.5781 0.546875 14.4922 0.546875 18.0469V28.9844C0.546875 32.5391 9.28156 34.4531 17.5 34.4531C25.7184 34.4531 34.4531 32.5391 34.4531 28.9844V18.0469C34.4531 14.4949 25.7184 12.5781 17.5 12.5781ZM1.64062 28.9844V20.0829C2.30042 20.621 3.03796 21.0559 3.82812 21.373V31.1117C2.42102 30.4445 1.64062 29.7002 1.64062 28.9844ZM30.0781 21.7913V31.5667C29.3615 31.8281 28.6313 32.0504 27.8906 32.2328V22.418C28.6705 22.2321 29.4033 22.0232 30.0781 21.7913ZM26.7969 32.4844C26.1111 32.6302 25.3819 32.7596 24.6094 32.8727V23.0289C25.3624 22.9195 26.0941 22.7976 26.7969 22.6559V32.4844ZM23.5156 33.0159C22.8153 33.0994 22.0861 33.1689 21.3281 33.2243V23.3805C22.0675 23.3259 22.7987 23.2586 23.5156 23.1744V33.0159ZM20.2344 33.2894C19.5256 33.3258 18.7965 33.3473 18.0469 33.3539V23.5102C18.7759 23.5025 19.507 23.4801 20.2344 23.4423V33.2894ZM16.9531 33.3539C16.2046 33.3466 15.4755 33.3251 14.7656 33.2894V23.444C15.493 23.4817 16.2241 23.5041 16.9531 23.5118V33.3539ZM13.6719 33.2227C12.915 33.168 12.1858 33.0985 11.4844 33.0143V23.1705C12.2013 23.2548 12.9325 23.3237 13.6719 23.3767V33.2227ZM10.3906 32.871C9.61771 32.758 8.88854 32.6286 8.20312 32.4827V22.657C8.90586 22.7987 9.63758 22.9228 10.3906 23.03V32.871ZM7.10938 32.2328C6.36872 32.0504 5.63849 31.8281 4.92188 31.5667V21.7913C5.59672 22.0232 6.32953 22.2321 7.10938 22.418V32.2328ZM31.1719 31.1117V21.373C31.962 21.0559 32.6996 20.621 33.3594 20.0829V28.9844C33.3594 29.7002 32.579 30.4445 31.1719 31.1117ZM17.5 22.4219C8.15391 22.4219 1.64062 20.1163 1.64062 18.0469C1.64062 15.9775 8.15391 13.6719 17.5 13.6719C26.8461 13.6719 33.3594 15.9775 33.3594 18.0469C33.3594 20.1163 26.8461 22.4219 17.5 22.4219Z" fill="black"/>
<path d="M10.3699 4.86383L11.2411 4.28305L10.6341 3.37305L9.76346 3.95383C9.48351 4.14043 9.24845 4.38683 9.07524 4.67526C8.90202 4.9637 8.79498 5.28697 8.76181 5.62178C8.72864 5.95658 8.77018 6.29458 8.88344 6.61139C8.99669 6.92819 9.17884 7.21593 9.41674 7.45383L10.0446 8.08273C10.1682 8.20626 10.2628 8.35568 10.3217 8.52023C10.3806 8.68477 10.4022 8.86033 10.385 9.03424C10.3677 9.20814 10.3121 9.37606 10.2222 9.52587C10.1322 9.67568 10.0101 9.80365 9.86463 9.90055L8.99346 10.4813L9.60049 11.3913L10.4711 10.8105C10.7511 10.6239 10.9861 10.3775 11.1593 10.0891C11.3326 9.80068 11.4396 9.47741 11.4728 9.1426C11.5059 8.80779 11.4644 8.4698 11.3511 8.15299C11.2379 7.83618 11.0557 7.54845 10.8178 7.31055L10.19 6.68164C10.0664 6.55812 9.97174 6.40869 9.91288 6.24415C9.85401 6.0796 9.83241 5.90404 9.84962 5.73014C9.86683 5.55623 9.92243 5.38831 10.0124 5.2385C10.1024 5.08869 10.2245 4.96072 10.3699 4.86383Z" fill="black"/>
<path d="M17.4793 2.12945L18.3505 1.54867L17.7435 0.638672L16.8728 1.21945C16.5929 1.40606 16.3578 1.65246 16.1846 1.94089C16.0114 2.22932 15.9044 2.55259 15.8712 2.8874C15.838 3.22221 15.8796 3.5602 15.9928 3.87701C16.1061 4.19382 16.2882 4.48155 16.5261 4.71945L17.1539 5.34836C17.2775 5.47188 17.3722 5.62131 17.4311 5.78585C17.4899 5.9504 17.5115 6.12596 17.4943 6.29986C17.4771 6.47377 17.4215 6.64169 17.3315 6.7915C17.2416 6.94131 17.1194 7.06928 16.974 7.16617L16.1028 7.74695L16.7099 8.65695L17.5805 8.07617C17.8604 7.88957 18.0955 7.64317 18.2687 7.35474C18.4419 7.0663 18.549 6.74303 18.5821 6.40822C18.6153 6.07342 18.5738 5.73542 18.4605 5.41861C18.3473 5.10181 18.1651 4.81407 17.9272 4.57617L17.2994 3.94727C17.1758 3.82374 17.0811 3.67432 17.0223 3.50977C16.9634 3.34523 16.9418 3.16967 16.959 2.99576C16.9762 2.82186 17.0318 2.65394 17.1218 2.50413C17.2118 2.35432 17.3339 2.22635 17.4793 2.12945Z" fill="black"/>
<path d="M25.1356 4.86383L26.0067 4.28305L25.3997 3.37305L24.5291 3.95383C24.2491 4.14043 24.0141 4.38683 23.8409 4.67526C23.6676 4.9637 23.5606 5.28697 23.5274 5.62178C23.4943 5.95658 23.5358 6.29458 23.6491 6.61139C23.7623 6.92819 23.9445 7.21593 24.1824 7.45383L24.8102 8.08273C24.9338 8.20626 25.0285 8.35568 25.0873 8.52023C25.1462 8.68477 25.1678 8.86033 25.1506 9.03424C25.1334 9.20814 25.0778 9.37606 24.9878 9.52587C24.8978 9.67568 24.7757 9.80365 24.6303 9.90055L23.7591 10.4813L24.3661 11.3913L25.2367 10.8105C25.5167 10.6239 25.7518 10.3775 25.925 10.0891C26.0982 9.80068 26.2052 9.47741 26.2384 9.1426C26.2716 8.80779 26.23 8.4698 26.1168 8.15299C26.0035 7.83618 25.8214 7.54845 25.5835 7.31055L24.9556 6.68164C24.832 6.55812 24.7374 6.40869 24.6785 6.24415C24.6196 6.0796 24.598 5.90404 24.6152 5.73014C24.6325 5.55623 24.6881 5.38831 24.778 5.2385C24.868 5.08869 24.9901 4.96072 25.1356 4.86383Z" fill="black"/>
</g>
<defs>
<clipPath id="clip0_41_227">
<rect width="35" height="35" fill="white"/>
</clipPath>
</defs>
</svg>
