<svg width="34" height="34" viewBox="0 0 34 34" fill="none" xmlns="http://www.w3.org/2000/svg">
<path d="M31.3438 22.7601H28.0929C27.1798 20.7841 25.9922 18.9469 24.5654 17.3029C24.4716 17.2 24.3412 17.1381 24.2022 17.1304C24.0632 17.1228 23.9267 17.17 23.8222 17.2619C23.7177 17.3539 23.6534 17.4832 23.6433 17.6221C23.6332 17.7609 23.6779 17.8982 23.768 18.0043C25.0173 19.446 26.0728 21.0448 26.9077 22.7601H18.7705C16.4109 22.2985 15.626 21.2572 15.6242 21.2572C15.2755 20.5974 14.7202 20.0701 14.0434 19.7558C13.3665 19.4416 12.6054 19.3577 11.8764 19.5171C11.0315 18.4463 10.1252 17.927 9.18018 17.9752C7.96749 18.0349 7.09434 19.0294 6.71511 19.555C6.48 19.5255 6.24265 19.5181 6.00616 19.5329C6.76054 17.9076 8.41676 14.6945 10.2787 13.3351C12.1425 12.0972 13.7922 14.3724 14.8873 16.6258C15.6011 18.2453 16.767 19.6245 18.2451 20.5978C18.8957 21.015 21.4786 22.3851 21.6739 21.2588C21.6843 21.1898 21.6811 21.1194 21.6643 21.0517C21.6476 20.984 21.6176 20.9203 21.5762 20.8641C21.5348 20.808 21.4827 20.7606 21.423 20.7246C21.3632 20.6886 21.297 20.6647 21.228 20.6543C19.3856 20.2909 17.7606 19.2165 16.7045 17.6637C17.6937 15.9791 19.4863 14.3484 21.5279 15.8467C21.9351 16.086 22.5041 17.0263 23.051 16.4697C23.098 16.4181 23.1342 16.3577 23.1578 16.2921C23.1814 16.2264 23.1918 16.1568 23.1885 16.0871C23.1851 16.0175 23.1681 15.9491 23.1383 15.8861C23.1085 15.823 23.0666 15.7664 23.015 15.7195C21.5076 14.0686 19.0291 13.6088 17.3323 15.2101C16.8701 15.6523 16.4543 16.1405 16.0914 16.6672C16.0091 16.5106 15.9295 16.352 15.8558 16.189C14.4083 13.2061 12.3212 10.7831 9.65205 12.4769C7.10006 14.3407 5.03984 19.0365 4.65265 19.959C3.36952 20.6757 3.06 22.6143 3.14593 22.7601H2.65628C2.51687 22.7624 2.38393 22.8193 2.28614 22.9187C2.18835 23.0181 2.13354 23.1519 2.13354 23.2914C2.13355 23.4308 2.18836 23.5646 2.28616 23.664C2.38396 23.7634 2.5169 23.8204 2.65631 23.8226C4.84146 23.8236 30.065 23.8219 31.3438 23.8226C31.4832 23.8204 31.6161 23.7634 31.7139 23.664C31.8117 23.5646 31.8665 23.4308 31.8665 23.2914C31.8665 23.1519 31.8117 23.0181 31.7139 22.9187C31.6161 22.8193 31.4832 22.7624 31.3438 22.7601ZM4.17023 22.7601C4.29928 21.7602 4.95648 20.2058 6.8604 20.6559C6.96994 20.678 7.08365 20.6652 7.18553 20.6193C7.28742 20.5734 7.37237 20.4968 7.42845 20.4001C7.43598 20.3871 8.20043 19.0849 9.23595 19.0362C9.89145 18.9993 10.5576 19.4792 11.2429 20.4432C11.3126 20.5413 11.4136 20.6128 11.5293 20.6461C11.645 20.6794 11.7685 20.6724 11.8797 20.6263C11.9482 20.5972 13.5718 19.9487 14.7318 21.8335C15.0237 22.2063 15.3832 22.5206 15.7915 22.7601H4.17023Z" fill="#616161"/>
<path d="M27.9345 25.8755H6.06555C5.92608 25.8777 5.79305 25.9346 5.69519 26.034C5.59733 26.1334 5.54248 26.2673 5.54248 26.4068C5.54248 26.5462 5.59734 26.6801 5.69521 26.7795C5.79308 26.8789 5.92611 26.9358 6.06558 26.938H27.9345C28.074 26.9358 28.207 26.8789 28.3048 26.7795C28.4027 26.6801 28.4576 26.5462 28.4576 26.4067C28.4575 26.2672 28.4027 26.1333 28.3048 26.034C28.207 25.9346 28.0739 25.8776 27.9345 25.8755Z" fill="#616161"/>
<path d="M24.5255 28.991H9.47459C9.33506 28.993 9.20194 29.0499 9.104 29.1493C9.00607 29.2487 8.95117 29.3827 8.95117 29.5222C8.95118 29.6618 9.00608 29.7957 9.10402 29.8951C9.20196 29.9945 9.33508 30.0514 9.47461 30.0535H24.5255C24.665 30.0514 24.7981 29.9945 24.896 29.8951C24.994 29.7957 25.0489 29.6618 25.0489 29.5222C25.0489 29.3827 24.994 29.2487 24.896 29.1493C24.7981 29.0499 24.665 28.993 24.5255 28.991Z" fill="#616161"/>
<path d="M24.5254 11.2294C27.8046 11.1252 27.8034 6.37101 24.5253 6.26709C21.2463 6.37143 21.2466 11.1258 24.5254 11.2294ZM24.5254 7.32959C24.8989 7.33375 25.2557 7.48505 25.5184 7.75065C25.781 8.01625 25.9283 8.37473 25.9283 8.74827C25.9283 9.12181 25.781 9.48028 25.5183 9.74587C25.2557 10.0115 24.8989 10.1628 24.5253 10.1669C24.1518 10.1627 23.795 10.0114 23.5324 9.74584C23.2697 9.48024 23.1224 9.12177 23.1224 8.74823C23.1224 8.37468 23.2697 8.01622 23.5324 7.75062C23.7951 7.48503 24.1519 7.33374 24.5254 7.32959Z" fill="#616161"/>
<path d="M24.5253 5.52422C24.6628 5.52226 24.7939 5.46629 24.8904 5.3684C24.9869 5.27051 25.041 5.13858 25.041 5.00112C25.041 4.86367 24.9869 4.73173 24.8904 4.63385C24.7939 4.53596 24.6628 4.47999 24.5253 4.47803C24.3879 4.47999 24.2567 4.53596 24.1602 4.63385C24.0637 4.73173 24.0096 4.86367 24.0096 5.00112C24.0096 5.13858 24.0637 5.27051 24.1602 5.3684C24.2567 5.46629 24.3879 5.52226 24.5253 5.52422Z" fill="#616161"/>
<path d="M22.2455 6.46842C22.3405 6.36969 22.393 6.23764 22.3916 6.10064C22.3903 5.96364 22.3353 5.83263 22.2384 5.73576C22.1416 5.63888 22.0105 5.58387 21.8735 5.58254C21.7366 5.58122 21.6045 5.63368 21.5058 5.72867C21.4108 5.8274 21.3583 5.95945 21.3596 6.09645C21.361 6.23345 21.416 6.36446 21.5129 6.46134C21.6097 6.55821 21.7407 6.61322 21.8777 6.61455C22.0147 6.61587 22.1468 6.56341 22.2455 6.46842Z" fill="#616161"/>
<path d="M20.7781 9.27129C20.9156 9.26933 21.0467 9.21336 21.1432 9.11547C21.2397 9.01758 21.2938 8.88565 21.2938 8.74819C21.2938 8.61074 21.2397 8.4788 21.1432 8.38092C21.0467 8.28303 20.9156 8.22706 20.7781 8.2251C20.6407 8.22706 20.5096 8.28303 20.4131 8.38092C20.3165 8.4788 20.2625 8.61074 20.2625 8.74819C20.2625 8.88565 20.3165 9.01758 20.4131 9.11547C20.5096 9.21336 20.6407 9.26933 20.7781 9.27129Z" fill="#616161"/>
<path d="M22.2455 11.768C22.3405 11.6693 22.393 11.5372 22.3916 11.4002C22.3903 11.2632 22.3353 11.1322 22.2384 11.0353C22.1416 10.9384 22.0105 10.8834 21.8735 10.8821C21.7366 10.8808 21.6045 10.9332 21.5058 11.0282C21.4108 11.127 21.3583 11.259 21.3596 11.396C21.361 11.533 21.416 11.664 21.5129 11.7609C21.6097 11.8578 21.7407 11.9128 21.8777 11.9141C22.0147 11.9154 22.1468 11.863 22.2455 11.768Z" fill="#616161"/>
<path d="M24.0023 12.4956C24.0044 12.633 24.0605 12.764 24.1583 12.8604C24.2562 12.9567 24.388 13.0108 24.5254 13.0108C24.6628 13.0108 24.7946 12.9567 24.8925 12.8604C24.9904 12.764 25.0464 12.633 25.0485 12.4956C25.0464 12.3583 24.9904 12.2273 24.8925 12.1309C24.7946 12.0345 24.6628 11.9805 24.5254 11.9805C24.388 11.9805 24.2562 12.0345 24.1583 12.1309C24.0605 12.2273 24.0044 12.3583 24.0023 12.4956Z" fill="#616161"/>
<path d="M26.8051 11.0282C26.7102 11.1269 26.6577 11.2589 26.6591 11.3959C26.6604 11.5329 26.7154 11.6639 26.8123 11.7608C26.9092 11.8576 27.0402 11.9126 27.1771 11.914C27.3141 11.9153 27.4462 11.8629 27.5449 11.7679C27.6399 11.6692 27.6923 11.5371 27.6909 11.4002C27.6896 11.2632 27.6346 11.1322 27.5377 11.0353C27.4409 10.9385 27.3099 10.8834 27.1729 10.8821C27.0359 10.8808 26.9039 10.9332 26.8051 11.0282Z" fill="#616161"/>
<path d="M28.2725 9.27129C28.41 9.26933 28.5411 9.21336 28.6376 9.11547C28.7341 9.01758 28.7882 8.88565 28.7882 8.74819C28.7882 8.61074 28.7341 8.4788 28.6376 8.38092C28.5411 8.28303 28.41 8.22706 28.2725 8.2251C28.1351 8.22706 28.0039 8.28303 27.9074 8.38092C27.8109 8.4788 27.7568 8.61074 27.7568 8.74819C27.7568 8.88565 27.8109 9.01758 27.9074 9.11547C28.0039 9.21336 28.1351 9.26933 28.2725 9.27129Z" fill="#616161"/>
<path d="M27.545 6.46842C27.6399 6.36969 27.6924 6.23764 27.6911 6.10064C27.6898 5.96364 27.6347 5.83263 27.5379 5.73576C27.441 5.63888 27.31 5.58387 27.173 5.58254C27.036 5.58122 26.9039 5.63368 26.8052 5.72867C26.7102 5.8274 26.6578 5.95945 26.6591 6.09645C26.6604 6.23345 26.7154 6.36446 26.8123 6.46134C26.9092 6.55821 27.0402 6.61322 27.1772 6.61455C27.3142 6.61587 27.4462 6.56341 27.545 6.46842Z" fill="#616161"/>
</svg>
