<svg width="35" height="35" viewBox="0 0 35 35" fill="none" xmlns="http://www.w3.org/2000/svg">
<g clip-path="url(#clip0_41_136)">
<path d="M34.1131 18.8784H29.4827L26.1759 15.2467C25.8611 14.9011 25.3321 14.8591 24.9668 15.1507L22.9153 16.7884L17.5035 8.24014C17.3409 7.98334 17.0581 7.82764 16.7542 7.82764C16.4503 7.82764 16.1675 7.98334 16.0049 8.24014L11.3839 15.5393L9.6513 13.0039C9.48605 12.7621 9.212 12.6174 8.91903 12.6174C8.62606 12.6174 8.35211 12.7621 8.18676 13.0039L4.17231 18.8784H0.886887C0.39703 18.8784 0 19.2755 0 19.7653C0 20.2552 0.39703 20.6522 0.886887 20.6522H2.96013L2.25437 21.6848C1.97796 22.0893 2.08182 22.6411 2.48624 22.9175C2.63928 23.0222 2.8135 23.0722 2.98585 23.0722C3.26897 23.0722 3.54715 22.9369 3.71891 22.6856L4.06086 22.1852L8.91913 15.0763L10.3509 17.1714L7.17659 22.1853L4.88133 25.8109C4.6193 26.2248 4.74238 26.7726 5.15626 27.0346C5.30349 27.1278 5.46756 27.1722 5.62986 27.1722C5.92362 27.1722 6.21117 27.0263 6.37997 26.7596L6.80144 26.0939L16.7543 10.3727L24.8402 23.1451L25.0421 23.4639C25.3041 23.8777 25.852 24.0008 26.2659 23.7389C26.6425 23.5004 26.7773 23.0254 26.6011 22.63C26.5837 22.591 26.5643 22.5523 26.5408 22.5152L23.8699 18.2963L25.424 17.0555L30.7501 22.9049L31.3708 23.5866C31.5458 23.7789 31.7858 23.8764 32.0268 23.8764C32.2399 23.8764 32.4537 23.8001 32.6236 23.6454C32.9858 23.3155 33.0121 22.7546 32.6824 22.3925L31.0978 20.6522H34.1132C34.6031 20.6522 35.0001 20.2552 35.0001 19.7653C35.0001 19.2755 34.603 18.8784 34.1131 18.8784Z" fill="black"/>
</g>
<defs>
<clipPath id="clip0_41_136">
<rect width="35" height="35" fill="white"/>
</clipPath>
</defs>
</svg>
