<svg width="34" height="34" viewBox="0 0 34 34" fill="none" xmlns="http://www.w3.org/2000/svg">
<g clip-path="url(#clip0_15_40)">
<path d="M22.9694 8.69792C22.5734 8.69792 22.1469 8.77097 21.8072 8.88998C21.0886 7.23147 19.8383 6.09908 18.0856 5.52236C15.6736 4.72874 13.8508 5.07056 12.6861 5.55125C14.4372 3.6876 16.6523 3.74046 17.9942 4.0091C18.3318 4.07657 18.6671 3.94627 18.87 3.669C19.0735 3.39087 19.096 3.03032 18.929 2.72821C18.423 1.81299 17.514 0.634241 16.0574 0.216443C14.909 -0.112761 13.6407 0.101219 12.2876 0.852869C10.6446 1.7657 9.80958 3.23513 9.87288 5.10224C9.8754 5.17622 9.87952 5.24914 9.88463 5.3214C9.33806 4.89815 8.60972 4.50134 7.64661 4.25157C7.3801 4.18243 7.10848 4.34242 7.03941 4.60866C6.97034 4.87498 7.13019 5.1468 7.39651 5.21587C8.60773 5.52993 9.36522 6.10679 9.82114 6.60859C8.11927 6.39322 6.37688 6.98907 4.62547 8.3897C3.02215 9.67185 1.76676 11.3705 1.07329 12.423C0.815148 10.3032 1.18008 8.58767 2.15986 7.32033C2.92406 6.33186 3.80402 5.99209 3.81046 5.98963C3.97583 5.92927 4.09709 5.78602 4.1293 5.61288C4.16151 5.43974 4.09995 5.26242 3.96732 5.1466L3.90384 5.09115C4.40518 5.02407 4.89211 4.98834 5.35341 4.98476C5.62855 4.98263 5.84984 4.75789 5.84765 4.48281C5.84552 4.20767 5.62138 3.98419 5.3457 3.98858C4.79216 3.99283 4.20707 4.03938 3.60684 4.12678C3.24476 4.17951 2.95561 4.43022 2.8522 4.7812C2.79456 4.97712 2.80239 5.17815 2.86861 5.35925C2.46681 5.60498 1.92084 6.01673 1.41305 6.65834C0.564376 7.73043 -0.346663 9.6834 0.132566 12.8989C0.186625 13.2619 0.453933 13.5459 0.813354 13.6222C0.875649 13.6354 0.937877 13.6419 0.999308 13.6419C1.29404 13.6419 1.56972 13.4937 1.73356 13.2362C2.34143 12.2801 3.60638 10.4803 5.24761 9.16778C6.60202 8.08473 7.93172 7.55038 9.21819 7.56838C8.54663 7.92767 7.71947 8.45378 6.88234 9.19454C5.12309 10.7514 2.99034 13.5891 2.82059 18.2668C2.80883 18.5912 2.97646 18.8933 3.25798 19.0553C3.39353 19.1333 3.54388 19.1721 3.69397 19.1721C3.85562 19.1721 4.01693 19.1271 4.15919 19.0374C4.83493 18.6115 6.07424 17.6639 7.26753 15.8839C7.40972 16.0518 7.60916 16.1593 7.83343 16.1851C8.11043 16.2166 8.37867 16.1183 8.56941 15.9149C8.77402 15.6965 9.06145 15.3667 9.37645 14.9377C9.06278 19.6317 9.05966 26.9346 11.0947 33.5809C11.1603 33.7953 11.3576 33.9333 11.5708 33.9333C11.6191 33.9333 11.6682 33.9263 11.7167 33.9113C11.9798 33.8309 12.1277 33.5523 12.0472 33.2893C11.799 32.4788 11.5821 31.6579 11.3926 30.833H11.9305C12.2056 30.833 12.4285 30.61 12.4285 30.3349C12.4285 30.0597 12.2056 29.8368 11.9305 29.8368H11.1777C10.821 28.0763 10.5838 26.3085 10.4347 24.5934H11.4404C11.7155 24.5934 11.9385 24.3704 11.9385 24.0953C11.9385 23.8201 11.7155 23.5972 11.4404 23.5972H10.3573C10.3111 22.9214 10.2777 22.256 10.2555 21.6046H10.9119C11.187 21.6046 11.41 21.3817 11.41 21.1065C11.41 20.8314 11.187 20.6084 10.9119 20.6084H10.2296C10.176 17.6039 10.3465 14.8766 10.5277 12.996C10.6544 12.7234 10.7747 12.4361 10.8841 12.134C11.0606 12.6233 11.2655 13.0754 11.4828 13.4875C11.5385 14.9538 11.6342 16.3534 11.7623 17.6866H11.2481C10.9729 17.6866 10.75 17.9096 10.75 18.1847C10.75 18.4599 10.9729 18.6828 11.2481 18.6828H11.8655C12.1774 21.4978 12.632 24.0016 13.1524 26.1951H11.9304C11.6552 26.1951 11.4323 26.4181 11.4323 26.6932C11.4323 26.9684 11.6552 27.1913 11.9304 27.1913H13.3984C14.0743 29.8231 14.8344 31.9674 15.5256 33.6267C15.6052 33.818 15.7904 33.9334 15.9856 33.9334C16.0494 33.9334 16.1143 33.921 16.1769 33.8949C16.4309 33.7892 16.5509 33.4976 16.4451 33.2436C14.9311 29.609 13.0798 23.5967 12.563 15.1599C12.8019 15.4674 13.0237 15.7202 13.2061 15.9149C13.3968 16.1183 13.665 16.2169 13.942 16.1851C14.1663 16.1594 14.3657 16.052 14.5079 15.8841C14.942 16.5323 15.416 17.1202 15.9228 17.6411C15.6757 18.734 15.6871 19.7908 15.7377 20.4698C15.7636 20.8164 16.008 21.1037 16.346 21.185C16.4086 21.2 16.4715 21.2073 16.5337 21.2073C16.8073 21.2073 17.066 21.0661 17.2131 20.8239C17.9137 19.6704 19.6394 17.3242 22.5232 16.3707C22.3434 16.5081 22.1607 16.6571 21.9775 16.8192C20.5623 18.0714 18.8469 20.3532 18.7105 24.1123C18.6998 24.4081 18.8527 24.6837 19.1095 24.8316C19.2331 24.9027 19.3703 24.9382 19.5073 24.9382C19.6548 24.9382 19.802 24.8971 19.9318 24.8152C20.4637 24.4798 21.4284 23.7443 22.3673 22.377C22.486 22.477 22.6331 22.542 22.7903 22.5599C23.039 22.5886 23.2903 22.4964 23.4618 22.3134C23.5553 22.2135 23.6624 22.0935 23.7771 21.9563C23.7172 22.8543 23.6373 23.7411 23.5376 24.607C23.5061 24.8802 23.7022 25.1272 23.9755 25.1588C23.9948 25.161 24.014 25.1621 24.0331 25.1621C24.2827 25.1621 24.4981 24.9749 24.5273 24.7209C24.6907 23.301 24.8023 21.827 24.8595 20.3381C24.9928 20.0836 25.1201 19.8106 25.2358 19.5196C25.2922 19.6613 25.3512 19.7987 25.4124 19.9316C25.5381 21.218 25.6676 23.0792 25.6601 25.2366H25.5069C25.2318 25.2366 25.0088 25.4595 25.0088 25.7346C25.0088 26.0098 25.2318 26.2327 25.5069 26.2327H25.6468C25.6389 26.5721 25.6275 26.9172 25.6118 27.2672H25.1707C24.8956 27.2672 24.6726 27.4902 24.6726 27.7653C24.6726 28.0405 24.8956 28.2634 25.1707 28.2634H25.5564C25.4475 29.9027 25.2428 31.6245 24.895 33.336C24.8402 33.6055 25.0143 33.8685 25.2839 33.9232C25.3174 33.9301 25.3507 33.9333 25.3836 33.9333C25.6155 33.9333 25.8232 33.7704 25.8712 33.5343C26.7522 29.1982 26.7387 24.8089 26.5576 21.7936C26.7299 22.0113 26.8844 22.1859 27.0038 22.3134C27.1752 22.4964 27.4264 22.5887 27.6753 22.5599C27.8325 22.542 27.9796 22.477 28.0983 22.377C29.0372 23.7443 30.0019 24.4798 30.5338 24.8151C30.6636 24.897 30.8108 24.9382 30.9583 24.9382C31.0953 24.9381 31.2325 24.9027 31.3561 24.8316C31.6129 24.6837 31.7658 24.4081 31.7551 24.1123C31.6187 20.3531 29.9032 18.0714 28.4881 16.8192C27.9638 16.3553 27.4439 15.996 26.9839 15.7229C27.8533 15.8148 28.748 16.2254 29.6585 16.9535C30.9532 17.989 31.9525 19.4112 32.433 20.1669C32.5824 20.4017 32.8336 20.5368 33.1024 20.5368C33.1584 20.5368 33.2152 20.5309 33.2719 20.5188C33.5999 20.4491 33.8439 20.1899 33.8933 19.8584C34.2801 17.2633 33.5412 15.6826 32.8533 14.8136C32.4306 14.2796 31.9736 13.9403 31.6427 13.7412C31.6538 13.623 31.6419 13.5012 31.6054 13.3812C31.4981 13.0284 31.2043 12.7802 30.8387 12.7335C29.0307 12.5026 27.7364 12.7776 26.8244 13.2103C26.9928 12.0622 26.6327 10.996 25.7613 10.0914C24.8875 9.18405 23.9481 8.71518 22.9694 8.69792ZM22.4764 11.8893C23.2223 12.2919 23.9381 12.9659 24.3717 14.0866C24.2869 14.036 24.1975 13.986 24.1038 13.9374C23.6885 13.7222 23.1435 13.5144 22.4725 13.4085C22.5048 12.8879 22.5056 12.3801 22.4764 11.8893ZM22.9519 9.69389C23.6563 9.70638 24.3603 10.0726 25.0441 10.7825C26.2281 12.0116 25.9043 13.3457 25.4659 14.2055C24.6425 11.4248 22.4478 10.6288 21.1369 10.4042C21.6035 10.0285 22.231 9.68334 22.9519 9.69389ZM17.7744 6.46866C19.2595 6.95739 20.314 7.92216 20.9137 9.3362C20.6077 9.5363 20.3433 9.75958 20.1265 9.96924C19.9002 10.1881 19.8236 10.5086 19.9269 10.8055C20.0299 11.1016 20.2879 11.305 20.6002 11.3361C20.8534 11.3613 21.1407 11.4071 21.4436 11.4865C21.5059 12.073 21.5181 12.6931 21.4787 13.3366C21.4018 13.3373 21.3236 13.3394 21.2443 13.343C19.8896 11.1452 17.0047 7.64807 12.1096 6.9886C13.0927 6.32083 14.9728 5.547 17.7744 6.46866ZM12.7715 1.7238C13.5623 1.28441 14.3025 1.06379 14.9821 1.06379C15.2592 1.06379 15.5264 1.10052 15.7827 1.17404C16.8004 1.46598 17.4952 2.27747 17.9261 2.98436C16.3247 2.7219 13.0976 2.70663 11.0063 6.12897C10.7196 4.90573 10.6544 2.89988 12.7715 1.7238ZM7.95503 15.1111L7.70785 14.684C7.61918 14.5306 7.45575 14.436 7.27869 14.4353C7.27803 14.4353 7.27736 14.4353 7.27677 14.4353C7.10044 14.4353 6.9372 14.5286 6.84761 14.6805C5.7455 16.5512 4.54763 17.5715 3.82653 18.0641C3.99947 14.7182 5.23812 11.9957 7.51014 9.96917C8.58249 9.01277 9.65159 8.43904 10.3218 8.137C10.274 8.82343 10.3008 9.475 10.3827 10.0888C10.0097 12.5604 8.64053 14.3497 7.95503 15.1111ZM14.9278 14.6806C14.838 14.528 14.6734 14.4339 14.4967 14.4353C14.3197 14.436 14.1562 14.5307 14.0676 14.6839L13.8203 15.1112C12.8675 14.056 11.0357 11.5437 11.3252 8.07909C12.1053 8.416 13.5719 9.1806 14.9262 10.6106C15.1154 10.8104 15.4307 10.8187 15.6304 10.6297C15.8302 10.4406 15.8387 10.1253 15.6495 9.92554C15.0844 9.32876 14.5032 8.83951 13.952 8.44083C17.0312 9.48848 19.0304 11.7803 20.1498 13.4791C19.9545 13.5184 19.7538 13.5663 19.5474 13.6244C19.0444 13.7656 18.6063 13.9593 18.2239 14.1923C17.9254 13.3273 17.5368 12.5078 17.063 11.7511C16.9169 11.5179 16.6095 11.4475 16.3764 11.5933C16.1433 11.7394 16.0727 12.0467 16.2187 12.2799C16.7112 13.0663 17.1036 13.928 17.3889 14.8421C16.88 15.3425 16.5189 15.9309 16.2658 16.5448C15.7814 15.9921 15.3328 15.3679 14.9278 14.6806ZM16.7031 19.7764C16.6749 17.9399 17.1369 15.3361 19.8168 14.5835C20.4589 14.4031 21.0347 14.3296 21.5468 14.3296C22.656 14.3296 23.4659 14.6744 24.0024 15.0244C20.1758 15.4805 17.8076 18.1527 16.7031 19.7764ZM22.9162 21.4313L22.79 21.2133C22.7013 21.06 22.538 20.9654 22.3608 20.9647C22.3602 20.9647 22.3595 20.9647 22.3589 20.9647C22.1826 20.9647 22.0194 21.0579 21.9298 21.2099C21.1448 22.5422 20.3 23.3252 19.7271 23.7485C19.9033 21.2135 20.8706 19.1443 22.6057 17.5936C23.4361 16.8515 24.2649 16.401 24.7938 16.1598C24.9528 18.6968 23.6698 20.565 22.9162 21.4313ZM30.7386 23.7485C30.1658 23.3251 29.3209 22.5421 28.536 21.2098C28.446 21.0573 28.284 20.9649 28.1049 20.9646C27.9278 20.9653 27.7644 21.06 27.6757 21.2132L27.5498 21.4309C26.9898 20.784 26.0167 19.4323 25.7372 17.604C25.7949 17.1645 25.8168 16.7008 25.7934 16.215C26.3134 16.4625 27.065 16.8898 27.828 17.565C29.5832 19.1183 30.5613 21.1971 30.7386 23.7485ZM32.9723 19.1744C31.8108 17.4691 29.4841 14.7004 26.6268 14.7004C26.537 14.7004 26.4468 14.7031 26.3559 14.7087C27.0174 14.0971 28.2816 13.4418 30.5808 13.7056C30.5144 13.8103 30.4885 13.9378 30.5119 14.0632C30.5441 14.2363 30.6654 14.3796 30.8308 14.44C30.8568 14.4494 33.3092 15.392 32.9723 19.1744Z" fill="#616161"/>
<path d="M24.2449 29.52H23.7431C23.9274 28.6638 24.0903 27.7893 24.231 26.8994C24.2739 26.6276 24.0885 26.3726 23.8168 26.3297C23.5448 26.2868 23.29 26.4722 23.247 26.7439C22.8826 29.0501 22.3662 31.25 21.7123 33.2825C21.628 33.5443 21.772 33.8249 22.0339 33.9092C22.0847 33.9255 22.136 33.9332 22.1866 33.9332C22.3971 33.9332 22.5927 33.7987 22.6607 33.5876C22.7793 33.2188 22.8933 32.8446 23.003 32.4656H24.0454C24.3205 32.4656 24.5435 32.2426 24.5435 31.9675C24.5435 31.6924 24.3205 31.4694 24.0454 31.4694H23.2778C23.3605 31.1547 23.4402 30.8368 23.5167 30.5161H24.245C24.5201 30.5161 24.7431 30.2932 24.7431 30.018C24.7431 29.7429 24.52 29.52 24.2449 29.52Z" fill="#616161"/>
</g>
<defs>
<clipPath id="clip0_15_40">
<rect width="34" height="34" fill="white"/>
</clipPath>
</defs>
</svg>
