<svg width="35" height="35" viewBox="0 0 35 35" fill="none" xmlns="http://www.w3.org/2000/svg">
<path d="M19.7699 6.43412C19.9549 6.07957 20.0533 5.68622 20.0569 5.28633C20.0569 3.86411 18.9039 2.71118 17.4817 2.71118C16.0595 2.71118 14.9066 3.86411 14.9066 5.28633C14.9102 5.68622 15.0086 6.07957 15.1935 6.43412C9.04259 6.74313 3.4214 8.31766 3.4214 11.062C3.41937 11.4684 3.74715 11.7994 4.15347 11.8015C4.17932 11.8016 4.20507 11.8004 4.23073 11.7978H30.8063C31.2126 11.7978 31.5421 11.4684 31.5421 11.062C31.5421 8.31766 25.9429 6.74313 19.7699 6.43412ZM17.5185 4.19006C18.1199 4.19006 18.6074 4.67759 18.6074 5.27898C18.6074 5.88037 18.1199 6.3679 17.5185 6.3679C16.9171 6.3679 16.4296 5.88037 16.4296 5.27898C16.4296 4.67759 16.9171 4.19006 17.5185 4.19006ZM5.4153 10.3557C6.77645 9.13435 11.2057 7.83941 17.5185 7.83941V7.86884C23.8313 7.86884 28.2606 9.16378 29.6217 10.3557H5.4153Z" fill="black"/>
<path d="M6.80583 15.3442C6.3995 15.3442 6.07007 15.6737 6.07007 16.08V23.9894C6.07007 24.3957 6.3995 24.7252 6.80583 24.7252C7.21215 24.7252 7.54158 24.3957 7.54158 23.9894V16.08C7.54158 15.6737 7.21215 15.3442 6.80583 15.3442Z" fill="black"/>
<path d="M34.2642 15.5429H31.5419V13.4386C31.5419 13.0323 31.2125 12.7029 30.8062 12.7029H4.23061C3.82429 12.7029 3.49485 13.0323 3.49485 13.4386V15.5429H0.735758C0.329436 15.5429 0 15.8723 0 16.2787C0 16.685 0.329436 17.0144 0.735758 17.0144H3.50221V27.8742C3.50221 31.1336 5.83456 32.2888 8.02712 32.2888H27.0832C30.3427 32.2888 31.4978 30.0079 31.4978 27.8742V17.0144H34.2642C34.6706 17.0144 35 16.685 35 16.2787C35 15.8723 34.6706 15.5429 34.2642 15.5429ZM30.0704 27.8742C30.0704 29.2206 29.5554 30.8172 27.1274 30.8172H7.99769C6.85726 30.8172 4.94429 30.4346 4.94429 27.8742V14.1744H30.0704V27.8742Z" fill="black"/>
</svg>
