<svg width="35" height="35" viewBox="0 0 35 35" fill="none" xmlns="http://www.w3.org/2000/svg">
<g clip-path="url(#clip0_41_171)">
<path d="M33.833 33.0591C33.4631 33.4291 32.9712 33.6329 32.4479 33.6329C31.9247 33.6329 31.4328 33.4292 31.0629 33.0591C29.7661 31.7622 27.656 31.7624 26.3591 33.0591C25.9891 33.4291 25.4972 33.6329 24.974 33.6329C24.4508 33.6329 23.9589 33.4292 23.5889 33.0591C22.2921 31.7622 20.182 31.7623 18.8852 33.0591C18.5151 33.4292 18.0232 33.6329 17.5 33.6329C16.9768 33.6329 16.4849 33.4292 16.1148 33.0591C14.8181 31.7622 12.7079 31.7622 11.4111 33.0591C11.0411 33.4291 10.5492 33.6329 10.026 33.6329C9.50278 33.6329 9.01087 33.4292 8.64091 33.0591C7.34413 31.7622 5.23401 31.7624 3.93717 33.0591C3.56721 33.4292 3.07529 33.6329 2.55207 33.6329C2.02885 33.6329 1.53693 33.4292 1.16697 33.0591C0.900096 32.7923 0.467245 32.7922 0.200233 33.0591C-0.0667102 33.326 -0.0667786 33.7588 0.200233 34.0259C0.828456 34.654 1.66367 35.0001 2.55207 35.0001C3.44047 35.0001 4.27568 34.654 4.9039 34.0259C5.66775 33.2621 6.91046 33.2621 7.67417 34.0259C8.30239 34.654 9.13761 35.0001 10.026 35.0001C10.9145 35.0001 11.7497 34.654 12.3779 34.0259C13.1416 33.2621 14.3843 33.262 15.1481 34.0259C15.7763 34.654 16.6116 35.0001 17.5 35.0001C18.3884 35.0001 19.2237 34.654 19.8519 34.0259C20.6156 33.2621 21.8583 33.262 22.6221 34.0259C23.2503 34.654 24.0855 35.0001 24.974 35.0001C25.8624 35.0001 26.6976 34.654 27.3258 34.0259C28.0897 33.2621 29.3324 33.2621 30.0961 34.0259C30.7243 34.654 31.5595 35.0001 32.4479 35.0001C33.3364 35.0001 34.1716 34.654 34.7999 34.0259C35.0668 33.7589 35.0668 33.3261 34.7999 33.0591C34.5328 32.7922 34.1 32.7922 33.833 33.0591Z" fill="black"/>
<path d="M33.833 27.5525C33.4631 27.9224 32.9711 28.1263 32.4479 28.1263C31.9247 28.1263 31.4328 27.9225 31.0628 27.5525C29.766 26.2556 27.656 26.2556 26.3591 27.5525C25.9891 27.9224 25.4972 28.1263 24.974 28.1263C24.4508 28.1263 23.9588 27.9225 23.5889 27.5525C22.292 26.2557 20.182 26.2556 18.8851 27.5525C18.1214 28.3162 16.8787 28.3162 16.1149 27.5525C14.8182 26.2556 12.708 26.2557 11.4111 27.5525C11.0412 27.9224 10.5493 28.1263 10.026 28.1263C9.50283 28.1263 9.01091 27.9225 8.64095 27.5525C7.3441 26.2556 5.23412 26.2556 3.93721 27.5525C3.56725 27.9224 3.07533 28.1263 2.55211 28.1263C2.02889 28.1263 1.53698 27.9225 1.16701 27.5525C0.900071 27.2856 0.467219 27.2856 0.200208 27.5525C-0.0667358 27.8194 -0.0667358 28.2523 0.200208 28.5193C1.49712 29.8161 3.60717 29.8162 4.90395 28.5193C5.6678 27.7555 6.9105 27.7555 7.67421 28.5193C8.97099 29.8162 11.0811 29.8161 12.378 28.5193C13.1417 27.7554 14.3844 27.7555 15.1481 28.5193C16.445 29.8161 18.555 29.8161 19.8519 28.5193C20.6155 27.7555 21.8584 27.7554 22.6221 28.5193C23.2706 29.1677 24.1221 29.492 24.974 29.4919C25.8256 29.4918 26.6775 29.1677 27.3258 28.5193C28.0897 27.7555 29.3324 27.7555 30.0961 28.5193C31.3929 29.8162 33.503 29.8161 34.7998 28.5193C35.0668 28.2523 35.0668 27.8195 34.7998 27.5525C34.5328 27.2855 34.1 27.2855 33.833 27.5525Z" fill="black"/>
<path d="M0.683645 7.10938H11.7123V21.78C11.608 21.8617 11.5071 21.9497 11.4111 22.0457C11.0412 22.4157 10.5493 22.6195 10.026 22.6195C9.50282 22.6195 9.01091 22.4157 8.64095 22.0457C7.3441 20.7488 5.23412 20.7488 3.93721 22.0457C3.56725 22.4157 3.07533 22.6195 2.55211 22.6195C2.02889 22.6195 1.53698 22.4157 1.16701 22.0457C0.900071 21.7788 0.467219 21.7788 0.200208 22.0457C-0.0667358 22.3126 -0.0667358 22.7455 0.200208 23.0125C1.49712 24.3093 3.60717 24.3094 4.90395 23.0125C5.6678 22.2487 6.9105 22.2487 7.67421 23.0125C8.97099 24.3094 11.0811 24.3093 12.378 23.0125C13.1417 22.2487 14.3844 22.2487 15.1481 23.0125C16.445 24.3093 18.555 24.3093 19.8519 23.0125C20.6155 22.2487 21.8584 22.2486 22.6221 23.0125C23.2706 23.661 24.1221 23.9852 24.974 23.9851C25.8256 23.9851 26.6775 23.6609 27.3258 23.0125C28.0897 22.2487 29.3324 22.2487 30.0961 23.0125C31.3929 24.3094 33.503 24.3093 34.7998 23.0125C35.0668 22.7456 35.0668 22.3127 34.7998 22.0457C34.5329 21.7788 34.1 21.7788 33.833 22.0457C33.4631 22.4157 32.9711 22.6195 32.4479 22.6195C31.9247 22.6195 31.4328 22.4157 31.0628 22.0457C30.9668 21.9497 30.866 21.8617 30.7618 21.78V7.10938H34.3165C34.694 7.10938 35 6.80326 35 6.42578C35 6.0483 34.694 5.74219 34.3165 5.74219H30.7254C30.383 2.51918 27.6483 0 24.336 0C21.0237 0 18.289 2.51918 17.9466 5.74219H15.7775C15.4351 2.51918 12.7003 0 9.38805 0C6.07576 0 3.34112 2.51918 2.9987 5.74219H0.683645C0.306096 5.74219 5.12699e-05 6.0483 5.12699e-05 6.42578C5.12699e-05 6.80326 0.306096 7.10938 0.683645 7.10938ZM7.16657 5.74219C7.45922 4.79315 8.34434 4.10156 9.38805 4.10156C10.4318 4.10156 11.3169 4.79315 11.6095 5.74219H7.16657ZM26.6602 7.10938V9.02344H15.8138V7.10938H26.6602ZM26.6602 11.7578H15.8138V10.3906H26.6602V11.7578ZM15.8138 13.125H26.6602V15.0391H15.8138V13.125ZM22.1145 5.74219C22.4072 4.79315 23.2923 4.10156 24.336 4.10156C25.3797 4.10156 26.2649 4.79315 26.5575 5.74219H22.1145ZM24.974 22.6195C24.4508 22.6195 23.9589 22.4157 23.5889 22.0457C22.292 20.7489 20.182 20.7488 18.8851 22.0457C18.1214 22.8095 16.8787 22.8095 16.1149 22.0457C16.0189 21.9497 15.9181 21.8617 15.8138 21.78V19.1406H18.1608C18.5384 19.1406 18.8444 18.8345 18.8444 18.457C18.8444 18.0796 18.5384 17.7734 18.1608 17.7734H15.8138V16.4062H26.6602V17.7734H24.3132C23.9357 17.7734 23.6296 18.0796 23.6296 18.457C23.6296 18.8345 23.9357 19.1406 24.3132 19.1406H26.6602V21.78C26.556 21.8617 26.4551 21.9497 26.3591 22.0457C25.9891 22.4157 25.4972 22.6195 24.974 22.6195ZM24.336 1.36719C27.1253 1.36719 29.3946 3.63645 29.3946 6.42578V21.1444C28.944 21.0504 28.478 21.0504 28.0274 21.1444V6.42578C28.0274 4.39038 26.3715 2.73438 24.336 2.73438C22.5342 2.73438 21.0307 4.03238 20.709 5.74219H19.3248C19.6598 3.27517 21.7786 1.36719 24.336 1.36719ZM9.38805 1.36719C12.1774 1.36719 14.4466 3.63645 14.4466 6.42578V21.1443C13.9961 21.0504 13.53 21.0504 13.0795 21.1443V6.42578C13.0795 4.39038 11.4235 2.73438 9.38805 2.73438C7.58623 2.73438 6.08274 4.03238 5.76111 5.74219H4.37697C4.71186 3.27517 6.83072 1.36719 9.38805 1.36719Z" fill="black"/>
<path d="M21.2373 17.7734C21.0568 17.7734 20.8812 17.8465 20.7533 17.9737C20.6262 18.1009 20.5537 18.2772 20.5537 18.457C20.5537 18.6368 20.6262 18.8132 20.7533 18.9403C20.8812 19.0674 21.0568 19.1406 21.2373 19.1406C21.4171 19.1406 21.5935 19.0675 21.7206 18.9403C21.8478 18.8132 21.9209 18.6368 21.9209 18.457C21.9209 18.2772 21.8478 18.1009 21.7206 17.9737C21.5935 17.8466 21.4171 17.7734 21.2373 17.7734Z" fill="black"/>
</g>
<defs>
<clipPath id="clip0_41_171">
<rect width="35" height="35" fill="white"/>
</clipPath>
</defs>
</svg>
