<svg width="35" height="35" viewBox="0 0 35 35" fill="none" xmlns="http://www.w3.org/2000/svg">
<path d="M28.7036 0.62559C27.7958 -0.237103 26.361 -0.202184 25.4963 0.703531L21.933 4.44435C19.2159 4.03091 16.4574 4.86727 14.4273 6.71994L14.4101 6.70374C14.1509 6.45687 13.7407 6.46684 13.4938 6.72602C13.4938 6.72602 13.4938 6.72602 13.4937 6.7261L12.4688 7.80179C12.1467 8.13802 11.9725 8.58922 11.9851 9.05467C11.9884 9.17604 11.9431 9.29376 11.8592 9.38151L11.8506 9.3905C9.36158 12.0045 7.1363 14.8574 5.20699 17.908L1.71919 23.4263C1.14387 24.3409 1.29133 25.5341 2.07211 26.2811L8.59602 32.4953C9.37997 33.2388 10.5789 33.3282 11.4645 32.7091L16.8068 28.957C19.7598 26.882 22.5011 24.521 24.991 21.9083L24.9996 21.8994C25.0837 21.8116 25.1989 21.7606 25.3203 21.7573C25.7859 21.7472 26.228 21.5513 26.5483 21.2133L27.5733 20.1372C27.8202 19.878 27.8102 19.4678 27.5511 19.2209C27.5511 19.2209 27.5511 19.2209 27.551 19.2208L27.5338 19.2046C29.2858 17.0868 29.9871 14.2909 29.442 11.5969L33.0054 7.85607C33.868 6.94833 33.8332 5.51356 32.9274 4.64876L28.7036 0.62559ZM27.1153 1.29594C27.3734 1.28808 27.6236 1.38474 27.8095 1.56396L32.0333 5.58753C32.4214 5.9582 32.4364 6.57305 32.0667 6.96219L31.8432 7.19714L26.2115 1.83229L26.435 1.59734C26.6124 1.41002 26.8574 1.30145 27.1153 1.29594ZM30.5019 8.60437L24.8704 3.24041L25.3173 2.77114L30.9492 8.13559L30.5019 8.60437ZM28.7139 10.482L23.0822 5.11754L23.9762 4.17885L29.6084 9.5437L28.7139 10.482ZM25.6096 20.3193C25.526 20.4076 25.4104 20.4587 25.2888 20.4613C24.8235 20.4713 24.3815 20.667 24.0614 21.0049L24.0528 21.0138C21.6218 23.5649 18.9452 25.8702 16.062 27.8962L10.7197 31.6484C10.3402 31.9138 9.8263 31.8755 9.49032 31.5567L2.96616 25.3425C2.63171 25.0222 2.56868 24.511 2.8153 24.1191L6.3035 18.6009C8.1868 15.6227 10.3591 12.8373 12.7888 10.2851L12.7974 10.2761C13.1194 9.93989 13.2935 9.48877 13.281 9.02332C13.2777 8.90171 13.3232 8.78391 13.4074 8.69608L13.9853 8.08933L26.1876 19.7124L25.6096 20.3193ZM26.5931 18.3084L22.3025 14.2215L15.368 7.61618C17.1366 6.03995 19.5249 5.35153 21.8611 5.74463L28.1468 11.732C28.6529 14.0463 28.0815 16.4652 26.5931 18.3084Z" fill="black"/>
<path d="M19.5465 6.7098C18.8409 6.954 18.1678 7.28383 17.5425 7.69176C17.2428 7.88742 17.1583 8.28903 17.354 8.5888C17.5497 8.88857 17.9513 8.973 18.251 8.77733C18.7875 8.42725 19.3649 8.14425 19.9703 7.93473C20.3086 7.81766 20.4879 7.44862 20.3709 7.11028C20.2539 6.77195 19.8848 6.59257 19.5465 6.70964V6.7098Z" fill="black"/>
<path d="M10.2874 16.2108C9.9999 15.9976 9.59391 16.0579 9.38075 16.3455C8.57769 17.429 7.80509 18.5564 7.0845 19.6964C6.89322 19.999 6.98347 20.3993 7.28608 20.5906C7.58869 20.7819 7.989 20.6916 8.18029 20.389C8.88378 19.276 9.63815 18.1753 10.4223 17.1174C10.6353 16.8297 10.575 16.4239 10.2874 16.2108Z" fill="black"/>
<path d="M12.334 13.6794C12.0597 13.4494 11.651 13.4852 11.4209 13.7594C11.28 13.9273 11.1402 14.0961 11.0014 14.2657C10.7746 14.5427 10.8154 14.9511 11.0924 15.1778C11.3695 15.4045 11.7779 15.3638 12.0046 15.0867C12.14 14.9211 12.2765 14.7564 12.4141 14.5925C12.6441 14.3183 12.6083 13.9095 12.334 13.6794Z" fill="black"/>
<path d="M12.3291 5.00602C12.5064 5.00626 12.6761 4.93359 12.7983 4.80509L12.8752 4.72407C13.5648 3.99635 14.5169 3.57473 15.5192 3.55334C15.8771 3.54459 16.1603 3.24733 16.1515 2.88939C16.1428 2.53145 15.8455 2.24828 15.4876 2.25703C14.1415 2.28612 12.8631 2.85244 11.9371 3.82986L11.8604 3.91031C11.6134 4.16941 11.6232 4.57969 11.8823 4.82664C12.0028 4.94153 12.163 5.00561 12.3295 5.00569L12.3291 5.00602Z" fill="black"/>
<path d="M14.7207 0.63211C14.7111 0.274734 14.4145 -0.00769876 14.057 0.000160106C12.7109 0.029246 11.4323 0.595571 10.5063 1.57307L10.4296 1.6536C10.1827 1.91278 10.1927 2.32306 10.4518 2.57001C10.711 2.81688 11.1213 2.80691 11.3682 2.54773L11.445 2.4672C12.1344 1.7394 13.0863 1.3177 14.0885 1.29606C14.4464 1.28739 14.7295 0.990216 14.7207 0.632353C14.7207 0.632191 14.7207 0.632191 14.7207 0.63211Z" fill="black"/>
<path d="M20.265 30.0641C19.9933 29.8311 19.5841 29.8625 19.3511 30.1342L19.2788 30.2185C18.6281 30.9811 17.6994 31.4516 16.6997 31.5253C16.3427 31.5524 16.0753 31.8638 16.1025 32.2207C16.1282 32.5584 16.4095 32.8194 16.7483 32.8197C16.7649 32.8197 16.7816 32.8191 16.7984 32.8178C18.1413 32.7189 19.3887 32.0868 20.2627 31.0625L20.3351 30.9781C20.5681 30.7063 20.5367 30.2972 20.265 30.0641Z" fill="black"/>
<path d="M17.6481 34.4013C17.6739 34.7389 17.9551 34.9997 18.2937 35.0001C18.3103 35.0001 18.327 34.9994 18.3438 34.9982C19.6866 34.8994 20.934 34.2673 21.808 33.2429L21.8804 33.1586C22.1168 32.8898 22.0904 32.4802 21.8216 32.2439C21.5528 32.0076 21.1432 32.0339 20.9069 32.3027C20.9035 32.3066 20.9001 32.3106 20.8967 32.3145L20.8243 32.399C20.1735 33.1615 19.2448 33.632 18.2451 33.7056C17.8881 33.7329 17.6209 34.0443 17.6481 34.4013Z" fill="black"/>
</svg>
