<svg width="34" height="34" viewBox="0 0 34 34" fill="none" xmlns="http://www.w3.org/2000/svg">
<g clip-path="url(#clip0_15_67)">
<path d="M33.7804 21.7182C33.5531 21.564 33.2431 21.6236 33.088 21.8504C33.0462 21.9116 32.0429 23.3479 30.2003 23.3479C28.3578 23.3479 27.3545 21.9116 27.3137 21.8521C27.1302 21.5613 26.6685 21.5616 26.4852 21.8525C26.4752 21.8674 25.4604 23.3479 23.6014 23.3479C22.0431 23.3479 21.0853 22.3209 20.8021 21.9678V14.235H33.5009C33.7766 14.235 34 14.0116 34 13.7359C34 13.4603 33.7766 13.2369 33.5009 13.2369H29.4879V9.59984C29.4879 6.30024 26.8353 3.5902 23.5749 3.55866C21.9709 3.54252 20.4582 4.15758 19.3161 5.28867C18.7631 5.83633 18.3316 6.47237 18.0323 7.16425C17.1099 5.06362 15.0354 3.58197 12.6297 3.55866C12.6099 3.55846 12.5901 3.55839 12.5703 3.55839C10.9882 3.55839 9.49886 4.17152 8.37081 5.28867C7.22849 6.42004 6.59929 7.92633 6.59929 9.53004V13.237H0.536803C0.261151 13.237 0.03776 13.4604 0.03776 13.736C0.03776 14.0117 0.261151 14.2351 0.536803 14.2351H6.59929V16.2057C6.59929 16.4814 6.82269 16.7048 7.09834 16.7048C7.37399 16.7048 7.59738 16.4814 7.59738 16.2057V9.53004C7.59738 8.19468 8.12146 6.94026 9.07319 5.99776C10.0246 5.05559 11.2832 4.54081 12.6202 4.55668C15.3354 4.58291 17.5446 6.8453 17.5446 9.59984V13.2369H16.2832V9.53004C16.2832 7.51793 14.6468 5.85286 12.6355 5.8184C12.6142 5.81807 12.5933 5.81787 12.5721 5.81787C11.6089 5.81787 10.6963 6.19459 9.99624 6.88276C9.27334 7.59337 8.85877 8.57904 8.85877 9.58702V22.9806C8.19351 22.6465 7.76712 22.1749 7.59731 21.9621V18.2018C7.59731 17.9261 7.37392 17.7027 7.09827 17.7027C6.82262 17.7027 6.59923 17.9261 6.59923 18.2018V21.9671C6.31501 22.3215 5.3573 23.3479 3.79967 23.3479C1.9571 23.3479 0.953834 21.9116 0.913061 21.8521C0.759264 21.6234 0.449213 21.5627 0.22051 21.7164C-0.00819309 21.8701 -0.0689548 22.1802 0.084842 22.4089C0.137967 22.488 1.41456 24.3459 3.79961 24.3459C5.43021 24.3459 6.54265 23.4776 7.10026 22.9029C7.65788 23.4776 8.77038 24.3459 10.4009 24.3459C12.0311 24.3459 13.1423 23.4781 13.6995 22.9032C14.2572 23.4779 15.3696 24.3459 16.9998 24.3459C18.6304 24.3459 19.7428 23.4776 20.3004 22.9029C20.858 23.4776 21.9705 24.3459 23.6011 24.3459C25.2313 24.3459 26.3425 23.4781 26.8996 22.9032C27.4574 23.4779 28.5697 24.3459 30.1999 24.3459C32.5851 24.3459 33.8616 22.488 33.9147 22.4089C34.0684 22.1808 34.0079 21.8725 33.7804 21.7182ZM9.85685 17.7028H17.5446V19.1H9.85685V17.7028ZM17.5446 16.7047H9.85685V14.235H17.5446V16.7047ZM10.696 7.59457C11.219 7.08045 11.9015 6.80413 12.6184 6.81635C14.0889 6.84158 15.2852 8.05894 15.2852 9.53011V13.237H9.85692V9.58709C9.85685 8.84493 10.1627 8.11871 10.696 7.59457ZM14.1134 21.8521C13.9301 21.5629 13.4707 21.5627 13.286 21.8509C13.2443 21.912 12.2433 23.3479 10.4011 23.3479C10.2105 23.3479 10.0294 23.3318 9.85685 23.3042V20.098H17.5446V23.3041C17.372 23.3317 17.1908 23.3479 17 23.3479C15.1575 23.3479 14.1541 21.9116 14.1134 21.8521ZM18.5426 22.9804V9.53004C18.5426 8.19468 19.0667 6.94026 20.0184 5.99776C20.9698 5.05559 22.2285 4.54081 23.5653 4.55668C26.2806 4.58291 28.4898 6.8453 28.4898 9.59984V13.2369H27.2284V12.1276C27.2284 11.8519 27.005 11.6285 26.7294 11.6285C26.4537 11.6285 26.2303 11.8519 26.2303 12.1276V13.2369H20.802V9.58695C20.802 8.84486 21.1079 8.11864 21.6411 7.59443C22.1641 7.08032 22.8454 6.804 23.5635 6.81622C25.034 6.84145 26.2303 8.05881 26.2303 9.52998V10.1315C26.2303 10.4071 26.4537 10.6305 26.7294 10.6305C27.005 10.6305 27.2284 10.4071 27.2284 10.1315V9.52998C27.2284 7.51787 25.592 5.8528 23.5807 5.81833C23.5595 5.818 23.5385 5.8178 23.5173 5.8178C22.5541 5.8178 21.6416 6.19452 20.9415 6.88269C20.2186 7.5933 19.804 8.57897 19.804 9.58695V21.9614C19.6337 22.1751 19.2073 22.6465 18.5426 22.9804Z" fill="#616161"/>
<path d="M13.7017 29.4437C11.8591 29.4437 10.8559 28.0074 10.8151 27.9479C10.6319 27.6588 10.1728 27.6585 9.98794 27.9463C9.94617 28.0074 8.94284 29.4437 7.10033 29.4437C5.25783 29.4437 4.25449 28.0074 4.21372 27.9479C4.05992 27.7192 3.74987 27.6585 3.52117 27.8123C3.29247 27.966 3.2317 28.2761 3.3855 28.5048C3.43863 28.5838 4.71515 30.4418 7.10027 30.4418C8.73087 30.4418 9.84331 29.5734 10.4009 28.9988C10.9585 29.5734 12.071 30.4418 13.7016 30.4418C13.9773 30.4418 14.2007 30.2184 14.2007 29.9427C14.2007 29.6671 13.9774 29.4437 13.7017 29.4437Z" fill="#616161"/>
<path d="M30.4792 27.814C30.2516 27.66 29.9418 27.7199 29.7868 27.9469C29.7451 28.008 28.7441 29.4439 26.9019 29.4439C25.0593 29.4439 24.0561 28.0076 24.0153 27.9481C23.8319 27.6575 23.3705 27.6575 23.1871 27.9481C23.177 27.963 22.1598 29.4439 20.3004 29.4439C18.4579 29.4439 17.4546 28.0076 17.4138 27.9481C17.2305 27.6589 16.7711 27.6587 16.5864 27.9469C16.5824 27.9526 16.1797 28.5352 15.4369 28.9688C15.1989 29.1078 15.1185 29.4134 15.2575 29.6514C15.3965 29.8893 15.7019 29.9696 15.9401 29.8308C16.3985 29.5632 16.753 29.2522 16.9994 28.9985C17.5569 29.5732 18.6694 30.442 20.3004 30.442C21.9311 30.442 23.0435 29.5736 23.6011 28.9989C24.1587 29.5736 25.2712 30.442 26.9018 30.442C29.2872 30.442 30.5613 28.5836 30.6144 28.5046C30.7677 28.2762 30.7068 27.968 30.4792 27.814Z" fill="#616161"/>
</g>
<defs>
<clipPath id="clip0_15_67">
<rect width="34" height="34" fill="white"/>
</clipPath>
</defs>
</svg>
