<svg width="34" height="34" viewBox="0 0 34 34" fill="none" xmlns="http://www.w3.org/2000/svg">
<path d="M32.2735 25.6063C32.0344 25.5531 31.7688 25.7125 31.7157 25.9781L31.6094 26.5625C30.0688 24.8891 25.6594 19.8156 23.2157 13.8922C23.136 13.7328 23.0032 13.6266 22.7907 13.6H14.0782C13.9985 13.4938 13.9188 13.3875 13.8391 13.2812V12.0063C14.2641 12.4313 14.7688 12.8031 15.3 13.0688C15.5391 13.175 15.8047 13.0953 15.9375 12.8563C16.0438 12.6172 15.9641 12.325 15.725 12.2188C14.9547 11.8203 14.3172 11.2359 13.8391 10.5453V9.48281C14.1579 9.775 14.5032 10.0141 14.875 10.2C15.1141 10.3063 15.3797 10.2 15.486 9.9875C15.5922 9.74844 15.5125 9.48281 15.2735 9.37656C14.6891 9.08437 14.1844 8.63281 13.8391 8.075V6.93281C14.025 7.09219 14.2375 7.19844 14.45 7.30469C14.6891 7.41094 14.9547 7.33125 15.0875 7.09219C15.1938 6.85313 15.1141 6.5875 14.875 6.45469C14.1844 6.08281 13.9188 5.60469 13.786 5.44531C13.6 5.17969 13.2016 5.17969 13.0157 5.44531C12.936 5.525 12.6438 6.08281 11.9266 6.45469C11.6875 6.56094 11.6079 6.85313 11.7141 7.09219C11.8204 7.30469 12.086 7.41094 12.325 7.30469C12.5375 7.19844 12.75 7.06563 12.936 6.93281V8.075C12.5641 8.63281 12.086 9.05781 11.5016 9.37656C11.2625 9.48281 11.1563 9.775 11.2891 9.9875C11.4219 10.2 11.6875 10.3328 11.9 10.2C12.2719 10.0141 12.6172 9.775 12.936 9.48281V10.5453C12.4579 11.2625 11.8204 11.8469 11.05 12.2188C10.811 12.325 10.7313 12.6172 10.8375 12.8297C10.9438 13.0422 11.236 13.1484 11.4485 13.0422C11.9797 12.7766 12.4844 12.4047 12.9094 11.9797V13.2547C12.8297 13.3609 12.75 13.4672 12.6704 13.5734H11.2094C10.9969 13.5734 10.8375 13.7063 10.7844 13.8656C10.3063 14.9812 9.80161 16.0703 9.21723 17.1328C8.68598 16.7078 8.23442 16.2031 7.86255 15.6453V14.3703C8.28755 14.7953 8.79223 15.1672 9.32348 15.4328C9.56255 15.5391 9.82817 15.4594 9.96098 15.2203C10.0672 14.9812 9.98755 14.6891 9.74848 14.5828C8.97817 14.1844 8.34067 13.6 7.86255 12.9094V11.8469C8.1813 12.1391 8.52661 12.3781 8.89848 12.5641C9.13755 12.6703 9.40317 12.5906 9.53598 12.3516C9.64223 12.1125 9.56255 11.8203 9.32348 11.7141C8.73911 11.4219 8.23442 10.9703 7.88911 10.4391V9.29688C8.07505 9.45625 8.28755 9.5625 8.50005 9.66875C8.73911 9.775 9.00473 9.66875 9.11098 9.45625C9.21723 9.21719 9.13755 8.95156 8.89848 8.84531C8.20786 8.47344 7.94223 7.99531 7.80942 7.83594C7.62348 7.57031 7.22505 7.57031 7.03911 7.83594C6.95942 7.91563 6.66723 8.47344 5.95005 8.84531C5.71098 8.97812 5.6313 9.24375 5.76411 9.48281C5.87036 9.69531 6.13598 9.775 6.37505 9.69531C6.58755 9.58906 6.80005 9.45625 6.98598 9.32344V10.4656C6.61411 11.0234 6.13598 11.4484 5.55161 11.7406C5.31255 11.8469 5.23286 12.1391 5.33911 12.3516C5.44536 12.5641 5.73755 12.6703 5.95005 12.5641C6.32192 12.3781 6.66723 12.1391 6.98598 11.8469V12.9094C6.50786 13.6266 5.87036 14.2109 5.10005 14.5828C4.86098 14.6891 4.7813 14.9812 4.88755 15.1938C4.9938 15.4062 5.28598 15.5125 5.49848 15.4062C6.02973 15.1406 6.53442 14.7688 6.95942 14.3438V15.6719C6.37505 16.5484 5.57817 17.2656 4.64848 17.7438C4.40942 17.85 4.30317 18.1156 4.43598 18.3547C4.54223 18.5938 4.80786 18.7 5.04692 18.5672H5.07348C5.79067 18.2219 6.42817 17.7172 6.98598 17.1328V20.825C5.55161 22.8703 4.03755 24.7828 2.39067 26.5625L2.25786 25.9516C2.20473 25.7125 1.96567 25.5266 1.70005 25.5797C1.43442 25.6328 1.27505 25.8719 1.32817 26.1375L1.91255 28.9266C1.96567 29.1656 2.20473 29.3516 2.47036 29.2984C2.70942 29.2453 2.89536 29.0062 2.84223 28.7406L2.62973 27.6781C4.17036 26.0312 5.60473 24.3047 6.9063 22.4984V23.2687L4.67505 28.6609C4.54223 28.9797 4.7813 29.2984 5.10005 29.2984H28.8735C29.1922 29.2984 29.4313 28.9531 29.2985 28.6609L26.2969 21.3828C27.811 23.6141 29.511 25.7125 31.3438 27.6516L31.1313 28.7141C31.0782 28.9531 31.2375 29.2188 31.5032 29.2719C31.7422 29.325 32.0079 29.1656 32.061 28.9L32.6454 26.1109C32.6985 25.8984 32.5391 25.6594 32.2735 25.6063ZM14.3438 28.3688L14.1844 27.6516C16.0172 25.6859 17.7172 23.5875 19.2313 21.3828L16.336 28.3688H14.3438ZM23.2422 23.375L25.0485 28.3953H23.2422V23.375ZM23.986 22.7109L27.1204 26.0578L25.8454 27.8375L23.986 22.7109ZM23.2422 20.5328V16.4156L26.2969 23.8266L23.2422 20.5328ZM7.86255 17.1859C8.12817 17.4781 8.44692 17.7437 8.76567 17.9828C8.47348 18.4875 8.1813 18.9922 7.86255 19.4703V17.1859ZM11.5282 14.5562H22.0735C19.6032 20.1609 15.4594 24.9422 13.9719 26.5625L13.8391 25.9516C13.786 25.7125 13.5469 25.5266 13.2813 25.5797C13.0422 25.6328 12.8563 25.8719 12.9094 26.1375L13.3875 28.3688H5.81723L11.5282 14.5562ZM22.3125 16.4156V20.7188V28.3688H17.3719L22.3125 16.4156ZM26.6157 28.3688L27.5985 26.9875L28.1829 28.3688H26.6157Z" fill="#616161"/>
<path d="M23.8 5.55155C24.0125 5.39217 24.039 5.09999 23.9062 4.91405C23.8265 4.8078 23.6937 4.72811 23.5609 4.72811C21.6484 4.5953 20.0015 6.05624 19.8687 7.96874C19.7359 9.88124 21.1969 11.5281 23.1094 11.6609C24.3578 11.7406 25.5797 11.1297 26.2437 10.0672C26.3765 9.85468 26.3234 9.56249 26.1109 9.42967C26.0047 9.34999 25.8453 9.34999 25.739 9.37655C24.5969 9.72186 23.375 9.11092 23.0297 7.96874C22.7375 7.03905 23.0562 6.0828 23.8 5.55155ZM24.65 10.3594C23.4547 11.0765 21.8875 10.7047 21.1703 9.50936C20.3734 8.18124 20.9312 6.42811 22.3656 5.84374C21.5687 7.3578 22.1265 9.21717 23.6406 10.0406C23.9328 10.1734 24.2781 10.3062 24.65 10.3594Z" fill="#616161"/>
</svg>
