<svg width="34" height="34" viewBox="0 0 34 34" fill="none" xmlns="http://www.w3.org/2000/svg">
<g clip-path="url(#clip0_15_347)">
<path d="M1.74192 17.7011C1.94039 17.8095 2.14921 17.8977 2.36525 17.9646C2.09982 18.943 2.3784 19.9887 3.09546 20.7054C3.81251 21.4221 4.85833 21.7002 5.83665 21.4343C6.23434 22.713 7.35286 23.6339 8.68415 23.7786C8.87502 24.3217 9.20179 24.8069 9.63332 25.1879V28.9001C9.63332 30.5174 9.31315 32.2242 8.46145 32.7194C8.35832 31.5782 7.97582 29.3806 6.54782 28.4286C6.28744 28.2549 5.93555 28.3252 5.76185 28.5856C5.58816 28.846 5.65844 29.1979 5.91882 29.3716C6.54281 29.9014 6.96162 30.633 7.10259 31.4393C6.54497 30.9478 5.84141 30.653 5.09999 30.6001C4.79089 30.6004 4.53978 30.8497 4.53729 31.1588C4.53501 31.4694 4.78157 31.7248 5.09205 31.7334C5.8331 31.8339 6.49587 32.2463 6.91332 32.8668H3.96665C3.65369 32.8668 3.39999 33.1205 3.39999 33.4334C3.39999 33.7464 3.65369 34.0001 3.96665 34.0001H33.4333C33.7463 34.0001 34 33.7464 34 33.4334C34 33.1205 33.7463 32.8668 33.4333 32.8668H32.3V8.50011C33.2389 8.50011 34 7.73899 34 6.80011V6.57627C34.0008 6.24086 33.9022 5.91273 33.7167 5.63334L30.8437 1.32667C30.5286 0.851991 29.9967 0.566686 29.427 0.566773H15.3C15.1109 0.566808 14.9342 0.661183 14.8291 0.818373L14.654 1.08131C13.7129 0.414945 12.4594 0.394023 11.4965 1.02861C10.7765 0.287851 9.75833 -0.0846447 8.73028 0.0166045C7.70224 0.117854 6.77628 0.681823 6.21462 1.54881C6.02936 1.83669 5.88928 2.15125 5.79925 2.48154C4.05717 1.88649 2.13489 2.57217 1.16267 4.13542C0.190443 5.69866 0.425428 7.726 1.72945 9.02541C1.34214 9.52316 1.13231 10.1361 1.13332 10.7668C1.13495 11.1883 1.2318 11.604 1.41665 11.9828C0.471908 12.6588 -0.0608188 13.7715 0.00503852 14.9313C0.0708958 16.0911 0.726727 17.1364 1.74192 17.7011ZM9.90475 32.8668C10.4658 31.9975 10.7667 30.6505 10.7667 28.9001V25.8707C11.4996 26.1321 12.3004 26.1321 13.0333 25.8707V28.9001C13.0333 30.6505 13.3342 31.9975 13.8952 32.8668H9.90475ZM31.1667 22.1001H24.3667V20.9668H31.1667V22.1001ZM23.2333 30.6001H19.8333V28.9001H23.2333V30.6001ZM23.2333 27.7668H19.8333V26.0668H23.2333V27.7668ZM23.2333 24.9334H19.8333V23.2334H23.2333V24.9334ZM19.8333 31.7334H23.2333V32.8668H19.8333V31.7334ZM23.2333 22.1001H19.8333V15.8668C19.8333 14.9279 20.5944 14.1668 21.5333 14.1668C22.4722 14.1668 23.2333 14.9279 23.2333 15.8668V22.1001ZM18.7 22.1001H14.1667V21.6394C14.4769 21.4599 14.7572 21.2329 14.9974 20.9668H18.7V22.1001ZM16.5093 32.8668C16.5708 32.3802 16.8428 31.9451 17.2533 31.6768C17.5334 31.5369 17.647 31.1964 17.5072 30.9163C17.3673 30.6362 17.0268 30.5225 16.7467 30.6624C15.9911 31.1056 15.4842 31.8747 15.3748 32.7438C14.4953 32.2735 14.1667 30.5434 14.1667 28.9001V23.2334H18.7V32.8668H16.5093ZM24.3667 32.8668V23.2334H28.9V32.8668H24.3667ZM30.0333 32.8668V23.2334H31.1667V32.8668H30.0333ZM31.1667 19.8334H24.3667V15.8668C24.3667 14.302 23.0981 13.0334 21.5333 13.0334C19.9685 13.0334 18.7 14.302 18.7 15.8668V19.8334H15.6632C15.7953 19.4701 15.8641 19.0867 15.8667 18.7001C15.8663 18.5523 15.8564 18.4047 15.8372 18.2581C16.7688 17.7345 17.3988 16.8021 17.537 15.7423C17.6752 14.6826 17.3054 13.6198 16.5393 12.8748C16.8404 12.4172 17.0006 11.8812 17 11.3334C16.991 10.181 16.2891 9.14726 15.2212 8.71374C15.2354 8.64347 15.2433 8.57151 15.2541 8.50011H31.1667V19.8334ZM29.427 1.70011C29.6164 1.70008 29.7933 1.7947 29.8985 1.95227L32.7715 6.26177C32.8332 6.35505 32.8663 6.46439 32.8667 6.57627V6.80011C32.8667 7.11307 32.6129 7.36677 32.3 7.36677H15.2586C15.0981 6.28671 14.5014 5.31984 13.6079 4.69211L15.6026 1.70011H29.427ZM5.60319 16.736C5.52409 16.6082 5.39742 16.517 5.25108 16.4826C5.10473 16.4481 4.9507 16.4733 4.82289 16.5524C4.07496 17.0715 3.10079 17.1326 2.29385 16.7111C1.5775 16.3106 1.1336 15.5542 1.13332 14.7334C1.13007 13.9958 1.49041 13.304 2.09665 12.8838C2.43014 13.1812 2.8253 13.401 3.25379 13.5276C3.55392 13.6163 3.86915 13.4449 3.95787 13.1448C4.0466 12.8447 3.87522 12.5294 3.57509 12.4407C2.81393 12.2377 2.27981 11.5544 2.26665 10.7668C2.26398 9.98787 2.79526 9.30854 3.55185 9.12344C3.74864 9.07536 3.90482 8.92595 3.96157 8.73149C4.01832 8.53703 3.96702 8.32706 3.82699 8.18069C3.68695 8.03431 3.47947 7.97376 3.28269 8.02184C3.0433 8.0834 2.81313 8.17638 2.59815 8.29837C1.58734 7.35497 1.40661 5.81911 2.17081 4.66684C2.93502 3.51456 4.4202 3.08356 5.68252 3.64774C5.71557 4.07758 5.82294 4.49843 5.99985 4.89157C6.0908 5.09628 6.29379 5.2282 6.51779 5.22817C6.59706 5.2278 6.67539 5.21102 6.74785 5.17887C6.88517 5.11766 6.99254 5.00439 7.04631 4.864C7.10009 4.7236 7.09587 4.56759 7.03459 4.43031C6.68573 3.70384 6.73519 2.849 7.16549 2.16761C7.54003 1.58935 8.15762 1.21325 8.84327 1.14585C9.52892 1.07845 10.2079 1.32711 10.6879 1.82137C10.5052 2.09554 10.3722 2.39977 10.2952 2.72011C10.2244 3.02422 10.4129 3.32831 10.7168 3.40011C10.7597 3.41022 10.8036 3.41535 10.8477 3.41541C11.1104 3.41503 11.3383 3.2342 11.3985 2.97851C11.5796 2.22391 12.2573 1.69397 13.0333 1.70011C13.3897 1.7009 13.7367 1.81457 14.0244 2.02481L12.5857 4.18324C12.3025 4.08433 12.0089 4.01817 11.7107 3.98604C11.5092 3.96671 11.3126 4.05636 11.1951 4.22123C11.0776 4.3861 11.057 4.60114 11.141 4.78535C11.225 4.96955 11.4009 5.09494 11.6025 5.11427C11.9364 5.14444 12.2618 5.23608 12.5624 5.38457C13.5412 5.85686 14.1642 6.8467 14.1667 7.93344C14.1653 8.68125 13.8614 9.39669 13.324 9.91677C13.112 10.1378 13.1139 10.4873 13.3284 10.7059C13.5429 10.9245 13.8923 10.9332 14.1174 10.7254C14.4023 10.4462 14.6437 10.1259 14.8336 9.77511C15.4566 10.0437 15.8619 10.6551 15.8667 11.3334C15.8662 11.6495 15.7762 11.9589 15.6071 12.2259C15.3601 12.106 15.0991 12.0173 14.8302 11.9619C14.6303 11.921 14.4238 11.9908 14.2897 12.1446C14.1555 12.2984 14.1145 12.5124 14.1821 12.7049C14.2498 12.8975 14.4157 13.0387 14.6166 13.0748C15.7596 13.3067 16.5408 14.367 16.4238 15.5273C16.3068 16.6877 15.3295 17.5706 14.1633 17.5696C13.8503 17.5696 13.5966 17.8233 13.5966 18.1363C13.5966 18.4492 13.8503 18.7029 14.1633 18.7029C14.3521 18.7013 14.5405 18.6841 14.7265 18.6514C14.7265 18.6678 14.7299 18.6837 14.7299 18.7001C14.7278 19.6002 14.1966 20.4148 13.3739 20.7798C12.8942 20.9834 12.3602 21.0207 11.8569 20.8857C11.6619 20.831 11.4525 20.8845 11.3076 21.0261C11.1628 21.1677 11.1045 21.3758 11.1548 21.5721C11.2051 21.7683 11.3564 21.9227 11.5515 21.9771C11.8495 22.0597 12.1574 22.1011 12.4667 22.1001C12.6566 22.0988 12.8462 22.0817 13.0333 22.0491V24.6229C12.2473 25.0678 11.2738 25.0128 10.5428 24.4824C9.80831 23.9396 9.47967 23.0033 9.71379 22.1205C9.79203 21.8172 9.60961 21.508 9.30635 21.4297C9.00309 21.3515 8.69383 21.5339 8.61559 21.8372C8.55444 22.0853 8.521 22.3394 8.51585 22.5948C7.34107 22.3057 6.60594 21.1385 6.85269 19.9541C6.89156 19.7554 6.82147 19.5511 6.66882 19.4181C6.51617 19.2851 6.30416 19.2436 6.11264 19.3093C5.92112 19.375 5.77919 19.5378 5.74032 19.7365C5.70693 19.9164 5.68798 20.0987 5.68365 20.2817C5.4979 20.3563 5.30012 20.3964 5.09999 20.4001C4.1611 20.4001 3.39999 19.639 3.39999 18.7001C3.40339 18.501 3.44294 18.3042 3.51672 18.1193C4.1924 18.0868 4.848 17.879 5.41902 17.5163C5.54697 17.4373 5.63827 17.3107 5.67281 17.1644C5.70735 17.018 5.68231 16.8639 5.60319 16.736Z" fill="#616161"/>
<path d="M9.06667 17.5667C9.37963 17.5667 9.63333 17.313 9.63333 17C9.63333 16.6871 9.88704 16.4334 10.2 16.4334C10.513 16.4334 10.7667 16.1797 10.7667 15.8667C10.7667 15.5538 10.513 15.3 10.2 15.3C9.26112 15.3 8.5 16.0612 8.5 17C8.5 17.313 8.75371 17.5667 9.06667 17.5667Z" fill="#616161"/>
<path d="M6.8 10.7667C7.11297 10.7667 7.36667 10.513 7.36667 10.2C7.36667 9.88704 7.62038 9.63333 7.93334 9.63333C8.2463 9.63333 8.5 9.37963 8.5 9.06667C8.5 8.75371 8.2463 8.5 7.93334 8.5C6.99445 8.5 6.23334 9.26112 6.23334 10.2C6.23334 10.513 6.48704 10.7667 6.8 10.7667Z" fill="#616161"/>
<path d="M11.3333 11.9002C11.6463 11.9002 11.9 12.1539 11.9 12.4668C11.9 12.7798 12.1537 13.0335 12.4667 13.0335C12.7796 13.0335 13.0333 12.7798 13.0333 12.4668C13.0333 11.528 12.2722 10.7668 11.3333 10.7668C11.0204 10.7668 10.7667 11.0206 10.7667 11.3335C10.7667 11.6465 11.0204 11.9002 11.3333 11.9002Z" fill="#616161"/>
<path d="M26.6333 14.1669H28.9C29.5259 14.1669 30.0333 13.6595 30.0333 13.0335V10.7669C30.0333 10.141 29.5259 9.63354 28.9 9.63354H26.6333C26.0074 9.63354 25.5 10.141 25.5 10.7669V13.0335C25.5 13.6595 26.0074 14.1669 26.6333 14.1669ZM26.6333 10.7669H28.9V13.0335H26.6333V10.7669Z" fill="#616161"/>
<path d="M16.4333 6.23343H30.0333C30.3463 6.23343 30.6 5.97973 30.6 5.66676C30.6 5.3538 30.3463 5.1001 30.0333 5.1001H16.4333C16.1203 5.1001 15.8666 5.3538 15.8666 5.66676C15.8666 5.97973 16.1203 6.23343 16.4333 6.23343Z" fill="#616161"/>
<path d="M1.7 34C2.01296 34 2.26667 33.7463 2.26667 33.4334C2.26667 33.1204 2.01296 32.8667 1.7 32.8667H0.566667C0.253705 32.8667 0 33.1204 0 33.4334C0 33.7463 0.253705 34 0.566667 34H1.7Z" fill="#616161"/>
</g>
<defs>
<clipPath id="clip0_15_347">
<rect width="34" height="34" fill="white"/>
</clipPath>
</defs>
</svg>
