<svg width="23" height="23" viewBox="0 0 23 23" fill="none" xmlns="http://www.w3.org/2000/svg">
<path fill-rule="evenodd" clip-rule="evenodd" d="M11.3841 12.847C13.7494 12.847 15.6741 10.9223 15.6741 8.55609C15.6741 6.19031 13.7494 4.26562 11.3841 4.26562C9.01875 4.26562 7.09219 6.19031 7.09219 8.55609C7.09172 10.9223 9.01875 12.847 11.3841 12.847ZM11.4853 0.46875C17.5584 0.46875 22.5009 5.41031 22.5009 11.4844C22.5009 14.363 21.39 16.9866 19.5755 18.9511C18.923 17.4192 17.865 16.1006 16.4981 15.1209C14.9948 14.0452 13.2267 13.4616 11.3859 13.4339C11.3836 13.4334 11.3817 13.4334 11.3794 13.4339C9.56719 13.4611 7.82344 14.0283 6.33563 15.0736C4.98422 16.0233 3.92625 17.3058 3.25594 18.7992C1.52344 16.8525 0.469688 14.2894 0.469688 11.4844C0.469688 5.41031 5.41219 0.46875 11.4853 0.46875ZM19.6064 3.36375C21.7758 5.53312 22.9702 8.41687 22.9702 11.4844C22.9702 14.5519 21.7753 17.4361 19.6064 19.605C17.4375 21.7744 14.5538 22.9688 11.4853 22.9688C8.41875 22.9688 5.53313 21.7744 3.36422 19.605C1.19484 17.4361 0 14.5519 0 11.4844C0 8.41687 1.19484 5.53312 3.36375 3.36375C5.53312 1.19484 8.41875 0 11.4853 0C14.5538 0 17.4375 1.19484 19.6064 3.36375Z" fill="#161117"/>
</svg>
