<svg width="34" height="34" viewBox="0 0 34 34" fill="none" xmlns="http://www.w3.org/2000/svg">
<g clip-path="url(#clip0_15_92)">
<path d="M33.502 21.2168H13.2914L12.2544 14.9099C13.0504 14.9847 13.7292 15.5872 13.8648 16.4121C13.9763 17.0899 14.9461 16.8418 14.8474 16.25C14.4497 13.8323 18.0332 13.4055 18.4048 15.6657C18.5025 16.2597 19.499 16.1845 19.3875 15.5041C19.0222 13.2823 22.3957 12.6152 22.9179 14.7879C22.9582 15.5878 24.0711 15.3784 23.8968 14.5991C23.3444 11.4924 21.6328 8.77437 19.0641 6.93109C16.4713 5.07055 13.3134 4.32343 10.1643 4.82224C10.1614 4.82264 10.1585 4.82311 10.1568 4.82337L10.1411 4.82576C10.1406 4.82583 10.1401 4.82596 10.1396 4.82603C10.1284 4.82782 10.1172 4.82928 10.106 4.83114C10.1054 4.83121 10.1048 4.83127 10.1042 4.8314C10.1009 4.83187 10.0971 4.83247 10.0941 4.83293C10.094 4.83293 10.0939 4.83293 10.0938 4.833C10.0935 4.83306 10.0933 4.83306 10.0931 4.83313C3.54338 5.9099 -0.909023 12.1145 0.167876 18.6641C0.272711 19.3016 1.33686 19.1539 1.22758 18.4898C1.06804 17.5194 1.74332 16.5783 2.71379 16.4188C3.66036 16.263 4.63077 16.9673 4.78486 17.905C4.88784 18.5309 5.87903 18.421 5.76762 17.7434C5.40677 15.5487 8.69795 14.8158 9.28533 16.9767C9.47933 17.6913 10.3922 17.7629 10.295 16.9064C10.2148 16.2015 10.656 15.4068 11.2756 15.0943L12.2822 21.2167H0.504623C0.229622 21.2167 0.00667344 21.4397 0.00667344 21.7147C0.00667344 21.9897 0.229622 22.2126 0.504623 22.2126H12.4459L12.9611 25.3461C11.9612 24.6556 10.9138 24.0292 9.76449 23.6388C8.10572 23.0753 6.21757 23.0717 4.44799 23.6286C2.67821 24.1854 1.13284 25.2694 0.0965699 26.6809C-0.06616 26.9026 -0.0183568 27.2142 0.203264 27.377C0.425017 27.5397 0.736601 27.4919 0.899331 27.2703C1.81111 26.0283 3.17755 25.0723 4.74682 24.5786C6.31603 24.0848 7.98429 24.0859 9.44415 24.5818C10.9906 25.1072 12.3998 26.147 13.7626 27.1527C15.6834 28.5701 17.6697 30.0359 20.1277 30.1571C20.2367 30.1624 20.3451 30.165 20.4531 30.165C21.8182 30.165 23.105 29.753 24.2159 29.3601C24.4752 29.2684 24.611 28.984 24.5193 28.7247C24.4276 28.4654 24.1431 28.3294 23.8839 28.4213C22.7746 28.8136 21.4822 29.2266 20.1768 29.1624C18.019 29.056 16.2388 27.7422 14.3539 26.3513C14.2677 26.2877 14.1812 26.2239 14.0945 26.1601C14.0955 26.1285 14.0936 26.0963 14.0883 26.0639L13.4551 22.2126H33.502C33.777 22.2126 34 21.9897 34 21.7147C34 21.4397 33.777 21.2168 33.502 21.2168ZM13.4574 14.267C12.3324 13.6326 10.8807 13.8604 10.0067 14.8288C9.73674 12.6701 9.61664 10.6561 9.6651 9.02168C9.73707 6.59302 10.1627 5.87212 10.3059 5.80838C10.3061 5.80838 10.3061 5.80838 10.3063 5.80832C10.4675 5.82412 11.1015 6.37326 11.9468 8.65074C12.5178 10.1892 13.0502 12.1433 13.4863 14.2828C13.4767 14.2773 13.467 14.2723 13.4574 14.267ZM14.4787 14.167C14.0149 11.8729 13.4421 9.78401 12.8248 8.15598C12.4556 7.18232 12.0849 6.41236 11.7218 5.86435C12.862 6.11904 14.0081 6.86928 15.0531 8.06615C16.2705 9.46041 17.2405 11.3296 17.8608 13.4468C17.3413 13.19 16.7418 13.1029 16.172 13.1966C15.4828 13.31 14.8942 13.6682 14.4787 14.167ZM22.3234 12.6645C21.142 12.1257 19.7018 12.4945 18.9224 13.5432C17.9781 10.0586 16.1743 7.28736 14.066 5.85028C15.6402 6.14201 17.1441 6.77912 18.4835 7.74023C20.2368 8.99851 21.5549 10.7012 22.3234 12.6645ZM3.00778 15.3987C2.29412 15.3987 1.51101 15.7252 1.01346 16.2317C1.17925 12.3897 3.35575 8.92475 6.6537 7.07503C6.11007 7.79434 5.64977 8.66595 5.29576 9.66869C5.08144 10.2758 6.02051 10.6074 6.23489 10.0003C6.85932 8.23174 7.83046 6.93521 8.9934 6.27074C8.81958 6.90487 8.71495 7.75178 8.67518 8.82689C8.61051 10.5736 8.73739 12.7474 9.03503 15.0819C7.90522 14.3697 6.40699 14.5637 5.49766 15.545C5.44813 14.4355 5.50364 13.3542 5.66418 12.314C5.76237 11.6777 4.77829 11.5256 4.67996 12.162C4.49705 13.3467 4.44274 14.5797 4.51617 15.8435C4.07512 15.5604 3.55453 15.3987 3.00778 15.3987Z" fill="#616161"/>
<path d="M28.4813 8.27969C30.0018 8.27969 31.2389 7.04265 31.2389 5.52205C31.2389 4.00144 30.0019 2.7644 28.4813 2.7644C26.9607 2.7644 25.7236 4.00144 25.7236 5.52205C25.7236 7.04265 26.9607 8.27969 28.4813 8.27969ZM28.4813 3.76037C29.4527 3.76037 30.243 4.55065 30.243 5.52212C30.243 6.49358 29.4527 7.28386 28.4813 7.28386C27.5098 7.28386 26.7195 6.49358 26.7195 5.52212C26.7195 4.55065 27.5099 3.76037 28.4813 3.76037Z" fill="#616161"/>
<path d="M28.4812 2.17833C28.7562 2.17833 28.9792 1.95538 28.9792 1.68038V0.501368C28.9792 0.226367 28.7562 0.00341797 28.4812 0.00341797C28.2062 0.00341797 27.9833 0.226367 27.9833 0.501368V1.68038C27.9833 1.95538 28.2062 2.17833 28.4812 2.17833Z" fill="#616161"/>
<path d="M27.9833 9.36392V10.5429C27.9833 10.8179 28.2062 11.0409 28.4812 11.0409C28.7562 11.0409 28.9792 10.8179 28.9792 10.5429V9.36392C28.9792 9.08892 28.7562 8.86597 28.4812 8.86597C28.2062 8.86597 27.9833 9.08892 27.9833 9.36392Z" fill="#616161"/>
<path d="M31.1978 3.30346C31.3252 3.30346 31.4526 3.25486 31.5498 3.15759L32.3835 2.32389C32.578 2.12943 32.578 1.81413 32.3835 1.61973C32.1891 1.42526 31.8738 1.42526 31.6794 1.61973L30.8457 2.45343C30.6512 2.64789 30.6512 2.96319 30.8457 3.15759C30.9429 3.25486 31.0704 3.30346 31.1978 3.30346Z" fill="#616161"/>
<path d="M25.4127 7.88657L24.579 8.72027C24.3845 8.91474 24.3845 9.23004 24.579 9.42444C24.6762 9.52164 24.8036 9.57031 24.931 9.57031C25.0584 9.57031 25.1859 9.52171 25.2831 9.42444L26.1168 8.59074C26.3113 8.39627 26.3113 8.08097 26.1168 7.88657C25.9224 7.69211 25.6071 7.69211 25.4127 7.88657Z" fill="#616161"/>
<path d="M31.8251 5.52212C31.8251 5.79712 32.048 6.02007 32.323 6.02007H33.502C33.777 6.02007 34 5.79712 34 5.52212C34 5.24712 33.777 5.02417 33.502 5.02417H32.323C32.048 5.02417 31.8251 5.24712 31.8251 5.52212Z" fill="#616161"/>
<path d="M23.4605 6.02007H24.6395C24.9145 6.02007 25.1374 5.79712 25.1374 5.52212C25.1374 5.24712 24.9145 5.02417 24.6395 5.02417H23.4605C23.1855 5.02417 22.9625 5.24712 22.9625 5.52212C22.9625 5.79712 23.1855 6.02007 23.4605 6.02007Z" fill="#616161"/>
<path d="M30.8457 7.88657C30.6512 8.08104 30.6512 8.39627 30.8457 8.59074L31.6794 9.42444C31.7766 9.52171 31.9041 9.57031 32.0315 9.57031C32.1589 9.57031 32.2863 9.52171 32.3835 9.42444C32.578 9.22997 32.578 8.91474 32.3835 8.72027L31.5498 7.88657C31.3554 7.69211 31.0401 7.69211 30.8457 7.88657Z" fill="#616161"/>
<path d="M25.4127 3.15762C25.5099 3.25488 25.6373 3.30349 25.7647 3.30349C25.8921 3.30349 26.0196 3.25488 26.1168 3.15762C26.3113 2.96315 26.3113 2.64785 26.1168 2.45345L25.2831 1.61975C25.0887 1.42522 24.7734 1.42529 24.579 1.61975C24.3845 1.81422 24.3845 2.12952 24.579 2.32392L25.4127 3.15762Z" fill="#616161"/>
<path d="M2.28119 28.2632C1.64036 28.2632 1.6393 29.2591 2.28119 29.2591C2.92202 29.2591 2.92308 28.2632 2.28119 28.2632Z" fill="#616161"/>
<path d="M9.15668 31.0427C8.51585 31.0427 8.51479 32.0386 9.15668 32.0386C9.79751 32.0386 9.79857 31.0427 9.15668 31.0427Z" fill="#616161"/>
<path d="M10.8891 27.2761C10.2483 27.2761 10.2472 28.272 10.8891 28.272C11.5299 28.272 11.531 27.2761 10.8891 27.2761Z" fill="#616161"/>
<path d="M24.0859 33.001C23.445 33.001 23.444 33.9969 24.0859 33.9969C24.7267 33.9969 24.7278 33.001 24.0859 33.001Z" fill="#616161"/>
<path d="M29.9913 30.2317C29.3504 30.2317 29.3494 31.2276 29.9913 31.2276C30.6321 31.2276 30.6332 30.2317 29.9913 30.2317Z" fill="#616161"/>
<path d="M19.3159 25.6467C19.0409 25.6467 18.818 25.8697 18.818 26.1447C18.818 26.4197 19.0409 26.6426 19.3159 26.6426H23.148C23.423 26.6426 23.6459 26.4197 23.6459 26.1447C23.6459 25.8697 23.423 25.6467 23.148 25.6467H19.3159Z" fill="#616161"/>
<path d="M31.2389 24.1085C31.2389 23.8335 31.016 23.6106 30.741 23.6106H22.1764C21.9014 23.6106 21.6785 23.8335 21.6785 24.1085C21.6785 24.3835 21.9014 24.6065 22.1764 24.6065H30.741C31.016 24.6065 31.2389 24.3836 31.2389 24.1085Z" fill="#616161"/>
<path d="M33.8117 28.7801C31.9122 27.186 29.6839 26.7305 26.9991 27.3875C26.732 27.4529 26.5684 27.7224 26.6338 27.9896C26.6992 28.2567 26.9688 28.4203 27.2358 28.3549C29.5907 27.7785 31.5322 28.1672 33.1715 29.543C33.2648 29.6212 33.3784 29.6595 33.4913 29.6595C33.6334 29.6595 33.7746 29.599 33.873 29.4816C34.0498 29.271 34.0224 28.9569 33.8117 28.7801Z" fill="#616161"/>
</g>
<defs>
<clipPath id="clip0_15_92">
<rect width="34" height="34" fill="white"/>
</clipPath>
</defs>
</svg>
