<svg width="34" height="34" viewBox="0 0 34 34" fill="none" xmlns="http://www.w3.org/2000/svg">
<path d="M30.0334 15.8666H28.9V11.3333C28.9 11.0613 28.7074 10.8289 28.4467 10.7779L23.2334 9.73528V8.71528L24.5877 9.12895C24.6444 9.14595 24.701 9.15162 24.752 9.15162C24.9957 9.15162 25.2224 8.99295 25.296 8.74928C25.3867 8.44895 25.2167 8.13162 24.922 8.04095L22.9217 7.42895C22.8934 7.41195 22.865 7.39495 22.8367 7.38928L20.0034 6.53928L9.80336 3.42261C9.50302 3.33195 9.18569 3.50195 9.09502 3.79661C9.00436 4.09695 9.17436 4.41428 9.46902 4.50495L10.7667 4.90728V9.73528L5.55336 10.7779C5.29269 10.8289 5.10002 11.0613 5.10002 11.3333V15.8666H3.96669C3.65502 15.8666 3.40002 16.1216 3.40002 16.4333V30.0333C3.40002 30.345 3.65502 30.6 3.96669 30.6H14.7334H19.2667H30.0334C30.345 30.6 30.6 30.345 30.6 30.0333V16.4333C30.6 16.1216 30.345 15.8666 30.0334 15.8666ZM27.7667 11.7979V15.8666H23.2334V10.8913L27.7667 11.7979ZM22.1 8.36962V10.1999V15.8666H11.9V10.1999V5.29261L19.669 7.62161L22.1 8.36962ZM6.23336 11.7979L10.7667 10.8913V15.8666H6.23336V11.7979ZM15.3 29.4666V23.8H18.7V29.4666H15.3ZM29.4667 29.4666H19.8334V23.8H20.9667C21.2784 23.8 21.5334 23.545 21.5334 23.2333C21.5334 22.9216 21.2784 22.6666 20.9667 22.6666H19.2667H14.7334H13.0334C12.7217 22.6666 12.4667 22.9216 12.4667 23.2333C12.4667 23.545 12.7217 23.8 13.0334 23.8H14.1667V29.4666H4.53336V16.9999H5.66669H11.3334H22.6667H28.3334H29.4667V29.4666Z" fill="#616161"/>
<path d="M26.6333 19.2666H23.2333C22.9216 19.2666 22.6666 19.5216 22.6666 19.8333V23.2333C22.6666 23.5449 22.9216 23.7999 23.2333 23.7999H26.6333C26.945 23.7999 27.2 23.5449 27.2 23.2333V19.8333C27.2 19.5216 26.945 19.2666 26.6333 19.2666ZM26.0666 22.6666H23.8V20.3999H26.0666V22.6666Z" fill="#616161"/>
<path d="M10.7667 19.2666H7.36672C7.05505 19.2666 6.80005 19.5216 6.80005 19.8333V23.2333C6.80005 23.5449 7.05505 23.7999 7.36672 23.7999H10.7667C11.0784 23.7999 11.3334 23.5449 11.3334 23.2333V19.8333C11.3334 19.5216 11.0784 19.2666 10.7667 19.2666ZM10.2 22.6666H7.93338V20.3999H10.2V22.6666Z" fill="#616161"/>
<path d="M14.1666 14.1669H19.8333C20.145 14.1669 20.4 13.9119 20.4 13.6002V10.2002C20.4 9.88854 20.145 9.63354 19.8333 9.63354H14.1666C13.855 9.63354 13.6 9.88854 13.6 10.2002V13.6002C13.6 13.9119 13.855 14.1669 14.1666 14.1669ZM19.2666 13.0335H17.5666V10.7669H19.2666V13.0335ZM14.7333 10.7669H16.4333V13.0335H14.7333V10.7669Z" fill="#616161"/>
</svg>
