<svg width="35" height="35" viewBox="0 0 35 35" fill="none" xmlns="http://www.w3.org/2000/svg">
<path d="M17.4316 31.8896C18.6775 31.8896 19.6875 30.8797 19.6875 29.6338C19.6875 28.3879 18.6775 27.3779 17.4316 27.3779C16.1858 27.3779 15.1758 28.3879 15.1758 29.6338C15.1758 30.8797 16.1858 31.8896 17.4316 31.8896Z" fill="black"/>
<path d="M34.633 10.5864C30.1397 5.76549 24.0553 3.11042 17.4997 3.11035C10.9448 3.11042 4.86032 5.76549 0.367 10.5864C-0.147745 11.1387 -0.117325 12.0039 0.435018 12.5187C0.987429 13.0334 1.85252 13.0031 2.36733 12.4507C6.33763 8.19081 11.7118 5.84479 17.5002 5.84472C23.2882 5.84479 28.6623 8.19081 32.6326 12.4507C32.9019 12.7396 33.267 12.8857 33.6331 12.8857C33.9669 12.8857 34.3015 12.7642 34.5649 12.5187C35.1173 12.0038 35.1478 11.1387 34.633 10.5864Z" fill="black"/>
<path d="M29.6127 16.2324C26.2913 12.886 21.9896 11.0431 17.4997 11.0432C13.0089 11.0433 8.70703 12.8862 5.38668 16.2326C4.85485 16.7686 4.8582 17.6342 5.3942 18.166C5.93021 18.6979 6.79584 18.6945 7.32767 18.1585C10.1307 15.3335 13.7433 13.7777 17.4997 13.7776C21.2553 13.7774 24.8678 15.3334 27.6719 18.1587C27.9391 18.4279 28.2906 18.5627 28.6423 18.5627C28.9904 18.5627 29.3387 18.4305 29.6055 18.1659C30.1413 17.634 30.1446 16.7684 29.6127 16.2324Z" fill="black"/>
<path d="M24.1411 21.895C22.3624 20.1327 19.8128 19.0381 17.4871 19.0381C17.4868 19.0381 17.4863 19.0381 17.4861 19.0381H17.3876C17.3871 19.0381 17.3869 19.0381 17.3865 19.0381C15.0607 19.0381 12.5109 20.1328 10.7323 21.895C10.196 22.4264 10.1919 23.292 10.7233 23.8284C10.9907 24.0982 11.3426 24.2334 11.6946 24.2334C12.0423 24.2334 12.3902 24.1015 12.6567 23.8375C13.923 22.5829 15.7794 21.7725 17.3867 21.7725C17.3869 21.7725 17.3871 21.7725 17.3873 21.7725H17.4863C17.4865 21.7725 17.4866 21.7725 17.4869 21.7725C19.0939 21.7725 20.9505 22.583 22.2166 23.8375C22.7529 24.3688 23.6187 24.365 24.1501 23.8284C24.6816 23.2921 24.6775 22.4264 24.1411 21.895Z" fill="black"/>
</svg>
